<?xml version="1.0" encoding="utf-8"?>
<!-- Generator: Adobe Illustrator 19.0.0, SVG Export Plug-In . SVG Version: 6.00 Build 0)  -->
<svg version="1.1" id="Layer_1" xmlns="http://www.w3.org/2000/svg" xmlns:xlink="http://www.w3.org/1999/xlink" x="0px" y="0px"
	 width="400px" height="400px" viewBox="0 0 400 400" enable-background="new 0 0 400 400" xml:space="preserve">
<g id="XMLID_12_">
	
		<circle id="XMLID_10_" fill="none" stroke="#333333" stroke-width="5.8853" stroke-miterlimit="10" cx="231.7" cy="68.2" r="38.7"/>
	
		<circle id="XMLID_9_" fill="none" stroke="#333333" stroke-width="5.8853" stroke-miterlimit="10" cx="102.6" cy="186.4" r="38.7"/>
	<path id="XMLID_8_" fill="#FFFFFF" stroke="#333333" stroke-width="6.0528" stroke-miterlimit="10" d="M270.8,316.7l11.4-9.8
		l10.2-8.7c0.4-0.4,0.8-0.7,1.3-1.1c0.1-0.1,0.2-0.2,0.3-0.3c0.2-0.2,0.4-0.4,0.6-0.5c2.1-2.1,4.2-4.2,6-6.5
		c0.1-0.2,0.2-0.3,0.4-0.5c0.2-0.3,0.4-0.6,0.7-0.9c0.3-0.4,0.5-0.7,0.8-1.1c0.1-0.1,0.1-0.2,0.2-0.3c2.1-3,4-6.2,5.6-9.5
		c0-0.1,0.1-0.1,0.1-0.2c0.2-0.4,0.4-0.8,0.5-1.2c0.1-0.3,0.2-0.5,0.3-0.8c0.1-0.2,0.1-0.4,0.2-0.5l19.9-51.2l3.2-7.8
		c1.3-3.3,2.1-5.3,2.1-5.4c1-2.5,3.8-13.4-7.9-22.2c-5.7-4.2-12.9-4.9-18.2-3.2c0.1-5.8-3.6-12.1-10.1-16.3
		c-6-3.9-12.9-4.9-18.3-3.2c0.3-5.9-3.3-12.5-10-16.9c0,0-0.1-0.1-0.1-0.1c-6.3-4.1-13.7-5-19.2-2.9l11.4-40.9
		c1.5-5.6,1-11.3-1.5-16l-13.4-25.4c-3.7-7-12-9.6-19.7-6.7c-1.1,0.4-2.1,0.9-3.1,1.5l-0.3,0.2c-8.3,4.9-12,15.2-8.5,23.3l6.5,15
		c2,4.7,2,10.3-0.1,15.5l-32.7,82l-2.3,5.9l-6.6,12.6c-20,15.5-37-1.6-37-1.6s-29.5-32.8-29.6-32.8c-3.5-3.9-7.9-4.8-12-3.8
		l-3.1,1.1c-1.5,0.7-2.9,1.7-4.1,2.8c-2.8,2.5-4.8,5.8-5.5,9.5c-0.6,3.5,0.1,7.3,2.8,10.8l45.8,67.7c5.7,8.3,5.8,16.1,5.2,20.3
		L128.6,322l79.8,24.3l39.3,12l5.8,1.8L270.8,316.7z"/>
	<polygon id="XMLID_7_" fill="#686868" stroke="#333333" stroke-width="5.1375" stroke-miterlimit="10" points="120.3,334.4 
		135.5,305.4 261.4,342.7 248.9,373.4 	"/>
	
		<line id="XMLID_6_" fill="none" stroke="#333333" stroke-width="6.3245" stroke-miterlimit="10" x1="176.3" y1="101" x2="136" y2="145.6"/>
	<polygon id="XMLID_5_" fill="#333333" points="190.3,85.4 187.4,96.9 184.5,108.4 176.3,101 168.1,93.5 179.2,89.5 	"/>
	<polygon id="XMLID_4_" fill="#333333" points="131.5,150.5 134.4,139 137.4,127.5 145.6,135 153.8,142.4 142.7,146.5 	"/>
	
		<line id="XMLID_3_" fill="none" stroke="#333333" stroke-width="6.3245" stroke-miterlimit="10" x1="250.4" y1="146.5" x2="245" y2="166.9"/>
	
		<line id="XMLID_2_" fill="none" stroke="#333333" stroke-width="6.3245" stroke-miterlimit="10" x1="280.5" y1="163.4" x2="276.7" y2="185.2"/>
	
		<line id="XMLID_1_" fill="none" stroke="#333333" stroke-width="6.3245" stroke-miterlimit="10" x1="307.9" y1="181.1" x2="304.5" y2="201.7"/>
</g>
</svg>
