<?xml version="1.0" encoding="iso-8859-1"?>
<!-- Generator: Adobe Illustrator 19.0.0, SVG Export Plug-In . SVG Version: 6.00 Build 0)  -->
<svg version="1.1" id="Capa_1" xmlns="http://www.w3.org/2000/svg" xmlns:xlink="http://www.w3.org/1999/xlink" x="0px" y="0px"
	 viewBox="0 0 512 512" style="enable-background:new 0 0 512 512;" xml:space="preserve">
<g>
	<g>
		<path fill="white" d="M435.2,64.001c-18.825,0-34.133,15.309-34.133,34.133c0,18.825,15.309,34.133,34.133,34.133
			c18.816,0,34.133-15.309,34.133-34.133S454.025,64.001,435.2,64.001z M435.2,115.201c-9.412,0-17.067-7.654-17.067-17.067
			c0-9.412,7.654-17.067,17.067-17.067c9.412,0,17.067,7.654,17.067,17.067S444.612,115.201,435.2,115.201z"/>
	</g>
</g>
<g>
	<g>
		<path fill="white" d="M93.867,98.134c-18.825,0-34.133,15.309-34.133,34.133c0,18.824,15.308,34.134,34.133,34.134
			c18.816,0,34.133-15.309,34.133-34.133C128,113.444,112.691,98.134,93.867,98.134z M93.867,149.334
			c-9.412,0-17.067-7.654-17.067-17.067c0-9.412,7.654-17.067,17.067-17.067c9.412,0,17.067,7.654,17.067,17.067
			C110.933,141.68,103.279,149.334,93.867,149.334z"/>
	</g>
</g>
<g>
	<g>
		<path fill="white" d="M264.533,302.934c-23.526,0-42.667,19.14-42.667,42.667c0,23.526,19.14,42.667,42.667,42.667
			c23.526,0,42.667-19.14,42.667-42.667C307.2,322.074,288.06,302.934,264.533,302.934z M264.533,371.201
			c-14.114,0-25.6-11.486-25.6-25.6s11.486-25.6,25.6-25.6s25.6,11.486,25.6,25.6S278.647,371.201,264.533,371.201z"/>
	</g>
</g>
<g>
	<g>
		<path fill="white" d="M435.2,29.868c-37.641,0-68.267,34.449-68.267,76.8c0,39.885,55.654,101.316,61.995,108.194
			c1.621,1.749,3.891,2.739,6.272,2.739c2.381,0,4.651-0.99,6.272-2.739c6.349-6.878,61.995-68.309,61.995-108.194
			C503.467,64.316,472.841,29.868,435.2,29.868z M435.2,196.225c-18.526-21.47-51.2-64.538-51.2-89.557
			c0-32.93,22.972-59.733,51.2-59.733s51.2,26.803,51.2,59.733C486.4,131.662,453.726,174.738,435.2,196.225z"/>
	</g>
</g>
<g>
	<g>
		<path fill="white" d="M93.867,64.001c-37.641,0-68.267,34.449-68.267,76.8c0,39.885,55.654,101.316,61.995,108.194
			c1.621,1.749,3.891,2.739,6.272,2.739s4.651-0.99,6.272-2.739c6.349-6.878,61.995-68.309,61.995-108.194
			C162.133,98.449,131.507,64.001,93.867,64.001z M93.867,230.358c-18.526-21.47-51.2-64.538-51.2-89.557
			c0-32.93,22.972-59.733,51.2-59.733s51.2,26.803,51.2,59.733C145.067,165.795,112.393,208.871,93.867,230.358z"/>
	</g>
</g>
<g>
	<g>
		<path fill="white" d="M264.533,260.259c-47.053,0-85.333,40.576-85.333,90.453c0,48.205,76.032,125.619,79.266,128.887
			c1.604,1.63,3.789,2.534,6.067,2.534c2.278,0,4.463-0.905,6.067-2.534c3.234-3.268,79.266-80.691,79.266-128.887
			C349.867,300.835,311.586,260.259,264.533,260.259z M264.533,461.287c-23.509-25.079-68.267-79.292-68.267-110.566
			c0-40.474,30.626-73.387,68.267-73.387S332.8,310.246,332.8,350.72C332.8,381.962,288.043,436.191,264.533,461.287z"/>
	</g>
</g>
<g>
	<g>
		<path fill="white" d="M468.275,169.361c-1.783-1.681-4.207-2.5-6.622-2.278c-2.432,0.222-4.651,1.485-6.093,3.456
			c-7.74,10.539-15.283,19.686-20.361,25.609c-11.87-13.858-37.291-45.355-47.224-71.791c-0.879-2.347-2.739-4.181-5.094-5.026
			C344.38,105.464,300.501,98.134,256,98.134c-37.436,0-73.54,4.992-107.324,14.831c-4.446,1.297-7.04,5.888-5.871,10.359
			c1.502,5.709,2.261,11.597,2.261,17.476c0,24.977-32.631,68.011-51.166,89.523c-9.523-11.119-27.827-33.656-39.859-55.876
			c-1.271-2.364-3.584-3.977-6.238-4.378c-2.654-0.358-5.342,0.478-7.253,2.355C14.029,198.555,0,228.925,0,260.259
			c0,79.334,89.395,146.534,212.565,159.778c0.307,0.034,0.606,0.051,0.913,0.051c2.97,0,5.76-1.544,7.305-4.139
			c1.707-2.842,1.613-6.426-0.256-9.182c-15.872-23.415-24.269-42.795-24.269-56.047c0-40.474,30.626-73.387,68.267-73.387
			s68.267,32.922,68.267,73.387c0,12.8-7.825,31.369-22.639,53.683c-1.869,2.816-1.894,6.477-0.068,9.327
			c1.826,2.85,5.163,4.352,8.516,3.814C432.469,399.54,512,334.866,512,260.267C512,227.611,496.887,196.173,468.275,169.361z
			 M334.549,397.253c10.172-18.227,15.317-33.826,15.317-46.532c0-49.877-38.281-90.453-85.333-90.453S179.2,300.843,179.2,350.72
			c0,13.491,5.82,30.268,17.34,50.014C91.511,384.41,17.067,326.998,17.067,260.267c0-23.561,9.574-46.737,27.81-67.567
			c17.741,29.056,41.6,55.066,42.726,56.286c1.621,1.749,3.891,2.748,6.272,2.748s4.659-0.99,6.272-2.739
			c6.349-6.878,61.995-68.309,61.995-108.194c0-4.54-0.358-9.088-1.075-13.568c30.029-7.987,61.926-12.032,94.942-12.032
			c41.173,0,81.698,6.536,117.495,18.91c15.403,37.06,53.751,78.916,55.433,80.742c1.613,1.749,3.891,2.748,6.272,2.748
			c2.381,0,4.659-0.998,6.272-2.756c0.478-0.521,10.223-11.136,21.897-26.3c20.685,21.888,31.556,46.524,31.556,71.723
			C494.933,322.322,429.892,377.072,334.549,397.253z"/>
	</g>
</g>
</svg>
