<?xml version="1.0" encoding="utf-8"?>
<!-- Generator: Adobe Illustrator 19.0.0, SVG Export Plug-In . SVG Version: 6.00 Build 0)  -->
<svg version="1.1" id="Layer_1" xmlns="http://www.w3.org/2000/svg" xmlns:xlink="http://www.w3.org/1999/xlink" x="0px" y="0px"
	 width="100px" height="200px" viewBox="0 0 100 200" enable-background="new 0 0 100 200" xml:space="preserve">
<g id="XMLID_32_">
	<path id="XMLID_30_" fill="#BBBCBE" stroke="#221F1F" stroke-width="0.1448" d="M28.4,76.7l-2.5-2.6C19.3,80.6,15.2,89.5,15,99.4
		l3.6,0C18.8,90.5,22.5,82.5,28.4,76.7z"/>
	<path id="XMLID_29_" fill="#E6E5E6" stroke="#221F1F" stroke-width="0.1448" d="M18.6,100.1c0-0.2,0-0.4,0-0.6l-3.6,0
		c0,0.2,0,0.4,0,0.6c0,10.9,4.7,20.6,12.2,27.3l2.4-2.6C22.9,118.7,18.6,109.9,18.6,100.1z"/>
	<g id="XMLID_33_">
		<path id="XMLID_28_" fill="#E6E5E6" stroke="#221F1F" stroke-width="0.1448" d="M51.5,67.2l0-3.6c-9.9,0-19,4-25.5,10.5l2.5,2.6
			C34.3,70.8,42.5,67.2,51.5,67.2z"/>
		<path id="XMLID_27_" fill="#BBBCBE" stroke="#221F1F" stroke-width="0.1448" d="M27.3,127.4c6.4,5.7,14.9,9.2,24.2,9.2l0-3.6
			c-8.3,0-15.9-3.1-21.7-8.3L27.3,127.4z"/>
		<path id="XMLID_26_" fill="#BBBCBE" stroke="#221F1F" stroke-width="0.1448" d="M88,99.5l-3.6,0c0,0.2,0,0.4,0,0.6
			c0,9.6-4.1,18.3-10.7,24.3l2.5,2.6c7.3-6.7,11.8-16.2,11.8-26.9C88,99.9,88,99.7,88,99.5z"/>
		<path id="XMLID_25_" fill="#E6E5E6" stroke="#221F1F" stroke-width="0.1448" d="M51.5,133C51.5,133,51.5,133,51.5,133l-0.1,3.6
			c0,0,0,0,0.1,0c9.5,0,18.2-3.6,24.7-9.6l-2.5-2.6C67.8,129.7,60.1,133,51.5,133z"/>
		<path id="XMLID_24_" fill="#BBBCBE" stroke="#221F1F" stroke-width="0.1448" d="M51.5,63.6C51.5,63.6,51.5,63.6,51.5,63.6
			l-0.1,3.6c0,0,0.1,0,0.1,0c8.8,0,16.9,3.5,22.8,9.2l2.4-2.6C70.2,67.5,61.3,63.6,51.5,63.6z"/>
		<path id="XMLID_23_" fill="#E6E5E6" stroke="#221F1F" stroke-width="0.1448" d="M76.8,73.8l-2.4,2.6c6.1,5.9,9.9,14,10.1,23.1
			l3.6,0C87.8,89.4,83.5,80.3,76.8,73.8z"/>
		<polygon id="XMLID_22_" fill="#FFFFFF" points="96.5,100 51,100 51,95.1 		"/>
		<polygon id="XMLID_21_" fill="none" stroke="#221F1F" stroke-width="0.1448" points="96.5,100 51,100 51,95.1 		"/>
		<polygon id="XMLID_20_" fill="#221F1F" points="96.5,100 51,100 51,104.9 		"/>
		<polygon id="XMLID_19_" fill="none" stroke="#221F1F" stroke-width="0.1448" points="96.5,100 51,100 51,104.9 		"/>
		<polygon id="XMLID_18_" fill="#221F1F" points="5.4,100 51,100 51,95.1 		"/>
		<polygon id="XMLID_17_" fill="none" stroke="#221F1F" stroke-width="0.1448" points="5.4,100 51,100 51,95.1 		"/>
		<polygon id="XMLID_16_" fill="#FFFFFF" points="5.4,100 51,100 51,104.9 		"/>
		<polygon id="XMLID_15_" fill="none" stroke="#221F1F" stroke-width="0.1448" points="5.4,100 51,100 51,104.9 		"/>
		<polygon id="XMLID_14_" fill="#FFFFFF" points="51,38.4 51,100 46.1,100 		"/>
		<polygon id="XMLID_13_" fill="none" stroke="#221F1F" stroke-width="0.1448" points="51,38.4 51,100 46.1,100 		"/>
		<polygon id="XMLID_12_" fill="#221F1F" points="51,38.4 51,100 55.9,100 		"/>
		<polygon id="XMLID_11_" fill="none" stroke="#221F1F" stroke-width="0.1448" points="51,38.4 51,100 55.9,100 		"/>
		<polygon id="XMLID_10_" fill="#221F1F" points="51,161.6 51,100 46.1,100 		"/>
		<polygon id="XMLID_9_" fill="none" stroke="#221F1F" stroke-width="0.1448" points="51,161.6 51,100 46.1,100 		"/>
		<polygon id="XMLID_8_" fill="#FFFFFF" points="51,161.6 51,100 55.9,100 		"/>
		<polygon id="XMLID_7_" fill="none" stroke="#221F1F" stroke-width="0.1448" points="51,161.6 51,100 55.9,100 		"/>
		<path id="XMLID_6_" fill="#FFFFFF" d="M58.8,101.3c0,4.3-3.5,7.8-7.8,7.8c-4.3,0-7.8-3.5-7.8-7.8c0-4.3,3.5-7.8,7.8-7.8
			C55.3,93.5,58.8,97,58.8,101.3z"/>
		<path id="XMLID_5_" fill="none" stroke="#221F1F" stroke-width="0.1448" d="M58.8,101.3c0,4.3-3.5,7.8-7.8,7.8
			c-4.3,0-7.8-3.5-7.8-7.8c0-4.3,3.5-7.8,7.8-7.8C55.3,93.5,58.8,97,58.8,101.3z"/>
		<path id="XMLID_4_" fill="#221F1F" d="M54.9,101.3c0,2.1-1.7,3.9-3.9,3.9c-2.2,0-3.9-1.7-3.9-3.9c0-2.2,1.7-3.9,3.9-3.9
			C53.1,97.4,54.9,99.1,54.9,101.3z"/>
		<path id="XMLID_3_" fill="none" stroke="#221F1F" stroke-width="0.1448" d="M54.9,101.3c0,2.1-1.7,3.9-3.9,3.9
			c-2.2,0-3.9-1.7-3.9-3.9c0-2.2,1.7-3.9,3.9-3.9C53.1,97.4,54.9,99.1,54.9,101.3z"/>
		<polygon id="XMLID_2_" fill="#CE2631" points="42.8,30.7 42.8,9 46.5,9 55.8,25.4 55.8,9.1 59.2,9.1 59.2,30.7 55.5,30.7 
			46.2,14.5 46.1,30.7 		"/>
		<path id="XMLID_1_" fill="#1E82C2" d="M42.4,182.2l3.5,0c0,1.5,0.5,2.7,1.5,3.6c1,0.9,2.2,1.4,3.7,1.4c1.4,0,2.5-0.4,3.3-1.2
			c0.7-0.7,1-1.5,1-2.6c0-1.4-1-2.4-3.1-3c-2-0.5-3.9-1-5.9-1.6c-2.1-0.9-3.2-2.5-3.1-4.7c0-2,0.7-3.5,2.1-4.7
			c1.4-1.2,3.2-1.8,5.3-1.8c2.1,0,4,0.7,5.5,2c1.5,1.3,2.2,3,2.2,5.1l-3.5,0c0-1.3-0.4-2.3-1.2-3.1c-0.8-0.8-1.9-1.2-3.1-1.2
			c-1,0-1.9,0.3-2.6,0.9c-0.7,0.6-1.1,1.4-1.1,2.4c0,1.3,1,2.3,3,2.8c2,0.6,4,1.1,5.9,1.7c2.1,1,3.2,2.6,3.2,4.8
			c0,2.4-0.9,4.2-2.5,5.4c-1.4,1-3.3,1.6-5.5,1.6c-2.4,0-4.4-0.7-5.9-2C43.3,186.6,42.5,184.7,42.4,182.2z"/>
	</g>
</g>
</svg>
