<?xml version="1.0" encoding="iso-8859-1"?>
<!-- Generator: Adobe Illustrator 19.0.0, SVG Export Plug-In . SVG Version: 6.00 Build 0)  -->
<svg version="1.1" id="Capa_1" xmlns="http://www.w3.org/2000/svg" xmlns:xlink="http://www.w3.org/1999/xlink" x="0px" y="0px"
	 viewBox="0 0 496 496" style="enable-background:new 0 0 496 496;" xml:space="preserve">
<g>
	<g>
		<g>
			<rect x="200" y="448" width="96" height="16"/>
			<path d="M407.632,36.368C405.768,16.04,388.808,0,368,0H128c-22.056,0-40,17.944-40,40v124.464C37.344,178.52,0,224.92,0,280
				c0,39.144,18.92,73.856,48,95.776V376h0.304c11.768,8.808,25.16,15.504,39.696,19.536V456c0,22.056,17.944,40,40,40h240
				c22.056,0,40-17.944,40-40V304h-16v112H104v-17.192c5.248,0.704,10.56,1.192,16,1.192c26.896,0,51.664-9,71.696-24H192v-0.224
				c29.08-21.92,48-56.632,48-95.776c0-66.168-53.832-120-120-120c-5.44,0-10.752,0.488-16,1.192V64h190.688
				C270.968,85.936,256,117.216,256,152c0,39.144,18.92,73.856,48,95.776V248h0.304c20.032,15,44.8,24,71.696,24
				c5.44,0,10.752-0.488,16-1.192V288h16v-20.464c14.536-4.032,27.928-10.728,39.696-19.536H448v-0.224
				c29.08-21.92,48-56.632,48-95.776C496,96.792,458.48,50.304,407.632,36.368z M392,432v24c0,13.232-10.768,24-24,24H128
				c-13.232,0-24-10.768-24-24v-24H392z M176,367.496C159.816,377.888,140.624,384,120,384c-20.624,0-39.816-6.112-56-16.504V344
				c0-13.232,10.768-24,24-24h64c13.232,0,24,10.768,24,24V367.496z M72,256c0-26.472,21.528-48,48-48s48,21.528,48,48
				s-21.528,48-48,48S72,282.472,72,256z M120,176c57.344,0,104,46.656,104,104c0,29.4-12.32,55.936-32,74.872V344
				c0-18.96-13.288-34.8-31.024-38.896C175.032,293.352,184,275.712,184,256c0-35.288-28.712-64-64-64c-35.288,0-64,28.712-64,64
				c0,19.712,8.968,37.352,23.024,49.104C61.288,309.2,48,325.04,48,344v10.872C28.32,335.936,16,309.4,16,280
				C16,222.656,62.656,176,120,176z M104,48v-8c0-13.232,10.768-24,24-24h240c10.792,0,19.832,7.2,22.84,17.016
				C385.968,32.416,381.032,32,376,32c-21.704,0-42.024,5.88-59.608,16H104z M432,239.496C415.816,249.888,396.624,256,376,256
				c-20.624,0-39.816-6.112-56-16.504V216c0-13.232,10.768-24,24-24h64c13.232,0,24,10.768,24,24V239.496z M328,128
				c0-26.472,21.528-48,48-48s48,21.528,48,48s-21.528,48-48,48S328,154.472,328,128z M448,226.872V216
				c0-18.96-13.288-34.8-31.024-38.896C431.032,165.352,440,147.712,440,128c0-35.288-28.712-64-64-64c-35.288,0-64,28.712-64,64
				c0,19.712,8.968,37.352,23.024,49.104C317.288,181.2,304,197.04,304,216v10.872C284.32,207.936,272,181.4,272,152
				c0-57.344,46.656-104,104-104s104,46.656,104,104C480,181.4,467.68,207.936,448,226.872z"/>
			<path d="M253.512,96.256l1.856,0.128l1-15.968l-1.76-0.12C252.424,80.152,250.232,80,248,80c-45.872,0-88.36,22.952-113.656,61.4
				l13.368,8.8C170.032,116.256,207.52,96,248,96C249.856,96,251.688,96.136,253.512,96.256z"/>
			<path d="M241.384,351.704c2.192,0.144,4.384,0.296,6.616,0.296c45.872,0,88.36-22.952,113.656-61.4l-13.368-8.8
				C325.968,315.744,288.48,336,248,336c-1.856,0-3.688-0.136-5.512-0.256l-1.856-0.128l-1,15.968L241.384,351.704z"/>
		</g>
	</g>
</g>
<g>
</g>
<g>
</g>
<g>
</g>
<g>
</g>
<g>
</g>
<g>
</g>
<g>
</g>
<g>
</g>
<g>
</g>
<g>
</g>
<g>
</g>
<g>
</g>
<g>
</g>
<g>
</g>
<g>
</g>
</svg>
