<?xml version="1.0" encoding="iso-8859-1"?>
<!-- Generator: Adobe Illustrator 19.0.0, SVG Export Plug-In . SVG Version: 6.00 Build 0)  -->
<svg version="1.1" id="Layer_1" xmlns="http://www.w3.org/2000/svg" xmlns:xlink="http://www.w3.org/1999/xlink" x="0px" y="0px"
	 viewBox="0 0 512 512" style="enable-background:new 0 0 512 512;" xml:space="preserve">
<g>
	<g>
		<path d="M202.611,191.997c-5.891,0-10.656,4.773-10.656,10.664v255.527c0,0.172-0.094,0.297-0.094,0.469
			c0,5.891,4.782,10.672,10.672,10.672c5.891,0,10.672-4.781,10.672-10.672h0.078V202.661
			C213.283,196.77,208.502,191.997,202.611,191.997z"/>
	</g>
</g>
<g>
	<g>
		<path d="M309.328,191.997c-5.891,0-10.656,4.773-10.656,10.664v255.605c0,0.141-0.078,0.25-0.078,0.391
			c0,5.891,4.765,10.672,10.656,10.672s10.672-4.781,10.672-10.672H320V202.669c0,0,0,0,0-0.008
			C320,196.77,315.219,191.997,309.328,191.997z"/>
	</g>
</g>
<g>
	<g>
		<path d="M202.611,127.998c-5.891,0-10.656,4.773-10.656,10.664s4.766,10.672,10.656,10.672c5.89,0,10.672-4.781,10.672-10.672
			S208.502,127.998,202.611,127.998z"/>
	</g>
</g>
<g>
	<g>
		<path d="M255.954,127.998c-5.89,0-10.672,4.773-10.672,10.664s4.781,10.672,10.672,10.672s10.656-4.781,10.656-10.672
			S261.844,127.998,255.954,127.998z"/>
	</g>
</g>
<g>
	<g>
		<path d="M309.328,127.998c-5.891,0-10.656,4.773-10.656,10.664s4.766,10.672,10.656,10.672S320,144.553,320,138.662
			S315.219,127.998,309.328,127.998z"/>
	</g>
</g>
<g>
	<g>
		<path d="M383.312,0.031V0H127.815v0.055C98.269,1.156,74.566,25.562,74.566,55.422c0,25.616,20.812,46.468,46.405,46.468
			c7.188,0,13.938-1.961,19.734-5.359l8.531,64.171V512H362.56V160.74l9-64.054c5.75,3.305,12.391,5.203,19.469,5.203
			c25.594,0,46.405-20.852,46.405-46.468C437.436,25.266,413.265,0.68,383.312,0.031z M341.233,490.657H170.564V170.662h170.669
			V490.657z M342.624,149.334h-33.296h-53.374h-53.343h-33.375l-2.828-21.336h36.203h53.343h53.374h36.296L342.624,149.334z
			 M391.03,80.554c-9.875,0-17.922-8.062-17.922-17.977c0-6.749,5.484-12.241,12.203-12.241c4.219,0,7.641,3.438,7.641,7.663h21.328
			C414.28,42.008,401.296,29,385.311,29c-18.484,0-33.531,15.062-33.531,33.577c0,3.75,0.531,7.375,1.516,10.805l-4.672,33.281
			H163.58l-4.438-33.398l-0.422,0.055c0.969-3.422,1.5-7.016,1.5-10.742c0-18.515-15.046-33.577-33.53-33.577
			c-15.984,0-28.969,13.008-28.969,28.999h21.328c0-4.226,3.422-7.663,7.641-7.663c6.719,0,12.203,5.492,12.203,12.241
			c0,9.914-8.047,17.977-17.922,17.977c-13.828,0-25.078-11.273-25.078-25.132c0-18.797,15.25-34.086,34-34.086h62.062v21.328
			c0,5.891,4.766,10.672,10.656,10.672s10.672-4.781,10.672-10.672V21.336h31.999v21.328h0.047c0,5.891,4.781,10.672,10.672,10.672
			s10.672-4.781,10.672-10.672c0-0.359-0.031-0.719-0.062-1.07V21.336h32.062v21.328c0,5.891,4.766,10.672,10.656,10.672
			s10.672-4.781,10.672-10.672V21.336h62.108c18.75,0,34,15.289,34,34.086C416.108,69.28,404.858,80.554,391.03,80.554z"/>
	</g>
</g>
<g>
	<g>
		<path d="M266.564,202.661c0-5.891-4.781-10.664-10.672-10.664s-10.656,4.773-10.656,10.664c0,0.484,0.031,0.961,0.094,1.43
			v254.566h-0.001c0,5.891,4.781,10.672,10.672,10.672s10.672-4.781,10.672-10.672V202.661H266.564z"/>
	</g>
</g>
<g>
</g>
<g>
</g>
<g>
</g>
<g>
</g>
<g>
</g>
<g>
</g>
<g>
</g>
<g>
</g>
<g>
</g>
<g>
</g>
<g>
</g>
<g>
</g>
<g>
</g>
<g>
</g>
<g>
</g>
</svg>
