<?xml version="1.0" encoding="iso-8859-1"?>
<!-- Generator: Adobe Illustrator 19.0.0, SVG Export Plug-In . SVG Version: 6.00 Build 0)  -->
<svg version="1.1" id="Capa_1" xmlns="http://www.w3.org/2000/svg" xmlns:xlink="http://www.w3.org/1999/xlink" x="0px" y="0px"
	 viewBox="0 0 512.001 512.001" style="enable-background:new 0 0 512.001 512.001;" xml:space="preserve">
<g>
	<g>
		<path d="M339.526,111.583l-165.062-76.35V7.658c0-4.229-3.429-7.658-7.658-7.658h-36.759c-4.229,0-7.658,3.429-7.658,7.658
			v291.171c0,4.13,3.348,7.479,7.479,7.479h0.358c4.13,0,7.479-3.348,7.479-7.479V15.316h21.443v24.812v156.813V496.41
			c-7.111,0.345-14.327,0.346-21.443,0v-162.2c0-4.13-3.348-7.479-7.479-7.479h-0.358c-4.13,0-7.479,3.348-7.479,7.479v47.532
			c-25.172,2.834-48.167,9.785-65.34,19.853c-20.419,11.97-31.664,27.789-31.664,44.544c0,16.754,11.245,32.574,31.664,44.544
			c18.764,11,44.471,18.297,72.373,20.547c6.245,0.512,12.639,0.771,19.005,0.771c6.365,0,12.759-0.259,18.995-0.77
			c27.913-2.249,53.619-9.546,72.383-20.547c20.419-11.97,31.664-27.789,31.664-44.544c-0.001-16.756-11.245-32.576-31.665-44.545
			c-17.174-10.067-40.168-17.02-65.34-19.853V201.836l164.861-76.257c2.175-1.006,3.877-2.9,4.431-5.232
			C344.623,116.692,342.776,113.087,339.526,111.583z M122.388,495.117c-46.423-5.66-81.688-26.428-81.688-48.978
			c0-22.551,35.265-43.319,81.688-48.978V495.117z M256.152,446.139c0,22.549-35.259,43.316-81.688,48.977v-97.955
			C220.887,402.82,256.152,423.588,256.152,446.139z M174.464,184.959V52.109l143.606,66.425L174.464,184.959z"/>
	</g>
</g>
<g>
	<g>
		<path d="M477.113,304.468c-1.985-3.952-6.918-5.366-10.668-3.026l-0.3,0.188c-3.312,2.067-4.424,6.306-2.676,9.797
			c5.14,10.266,7.832,21.628,7.832,33.235c0,42.298-35.536,76.452-78.321,74.173c-37.659-2.005-68.128-32.474-70.132-70.132
			c-2.278-42.785,31.876-78.321,74.173-78.321c17.573,0,34.216,6.061,47.538,17.195c2.953,2.468,7.312,2.234,10.033-0.486
			l0.254-0.254c3.115-3.115,2.87-8.229-0.512-11.052c-15.925-13.298-35.777-20.59-56.758-20.717
			c-48.207-0.291-88.373,38.151-90.095,86.328c-1.82,50.887,39.05,92.865,89.539,92.865c49.405,0,89.597-40.193,89.597-89.597
			C486.617,330.628,483.351,316.885,477.113,304.468z"/>
	</g>
</g>
<g>
	<g>
		<path d="M359.293,377.634c-2.604-1.646-6.041-1.536-8.547,0.249c-2.874,2.048-3.95,5.899-2.61,9.153
			c1.211,3.013,4.402,4.949,7.629,4.704c3.253-0.248,6.079-2.605,6.863-5.778C363.412,382.787,362.059,379.382,359.293,377.634z"/>
	</g>
</g>
<g>
	<g>
		<path d="M443.353,383.258c-1.641-2.497-4.74-3.806-7.676-3.291c-3.293,0.578-5.866,3.288-6.292,6.603
			c-0.882,6.88,7.542,11.209,12.687,6.657C444.887,390.738,445.465,386.379,443.353,383.258z"/>
	</g>
</g>
<g>
	<g>
		<path d="M443.834,309.595c-2.4-2.392-6.199-2.919-9.157-1.263c-2.636,1.475-4.187,4.462-3.87,7.469
			c0.327,3.101,2.561,5.753,5.568,6.581c3.176,0.874,6.654-0.423,8.451-3.189C446.769,316.201,446.362,312.126,443.834,309.595z"/>
	</g>
</g>
<g>
	<g>
		<path d="M415.273,393.398c-2.917-1.921-6.87-1.651-9.446,0.74c-2.16,2.003-2.991,5.152-2.089,7.956
			c0.989,3.076,3.864,5.236,7.1,5.318c3.361,0.086,6.448-2.122,7.474-5.314C419.344,398.894,418.094,395.254,415.273,393.398z"/>
	</g>
</g>
<g>
	<g>
		<path d="M384.568,394.526c-2.565-2.117-6.342-2.298-9.106-0.454c-3.008,2.005-4.194,5.965-2.819,9.302
			c1.161,2.89,4.153,4.801,7.254,4.723c3.122-0.08,5.981-2.13,7.021-5.077C387.983,399.997,387.041,396.565,384.568,394.526z"/>
	</g>
</g>
<g>
	<g>
		<path d="M375.539,350.858c-2.521-2.277-6.362-2.604-9.234-0.793c-3.118,1.967-4.377,5.998-2.976,9.402
			c1.135,2.827,4.03,4.728,7.067,4.728c3.058,0,5.904-1.906,7.066-4.728C378.68,356.514,377.917,353.005,375.539,350.858z"/>
	</g>
</g>
<g>
	<g>
		<path d="M419.889,373.078c-0.561-3-3.025-5.418-6.004-6.014c-3.256-0.652-6.699,0.962-8.25,3.902
			c-1.454,2.755-1.106,6.173,0.907,8.556c2.21,2.617,6.026,3.436,9.115,1.97C418.776,380.012,420.595,376.477,419.889,373.078z"/>
	</g>
</g>
<g>
	<g>
		<path d="M460.966,327.758c-2.548-2.352-6.568-2.697-9.444-0.731c-2.763,1.819-4.037,5.391-3.085,8.55
			c0.909,3.014,3.634,5.219,6.778,5.447C462.268,341.534,466.202,332.589,460.966,327.758z"/>
	</g>
</g>
<g>
	<g>
		<path d="M349.118,328.436c-3.079,2.445-3.832,6.986-1.626,10.261c1.761,2.671,5.13,3.952,8.228,3.178
			c3.105-0.775,5.433-3.493,5.763-6.675C362.165,328.642,354.289,324.333,349.118,328.436z"/>
	</g>
</g>
<g>
	<g>
		<path d="M377.971,373.001c-2.106,2.474-2.412,6.104-0.755,8.894c1.677,2.821,5.109,4.288,8.307,3.54
			c3.42-0.799,5.927-3.938,5.927-7.456C391.451,371.019,382.481,367.703,377.971,373.001z"/>
	</g>
</g>
<g>
	<g>
		<path d="M344.451,352.094c-3.055-0.629-6.313,0.769-7.972,3.407c-1.763,2.804-1.511,6.55,0.649,9.07
			c4.527,5.28,13.479,1.985,13.479-4.973C350.607,356.019,347.992,352.757,344.451,352.094z"/>
	</g>
</g>
<g>
</g>
<g>
</g>
<g>
</g>
<g>
</g>
<g>
</g>
<g>
</g>
<g>
</g>
<g>
</g>
<g>
</g>
<g>
</g>
<g>
</g>
<g>
</g>
<g>
</g>
<g>
</g>
<g>
</g>
</svg>
