<?xml version="1.0" encoding="iso-8859-1"?>
<!-- Generator: Adobe Illustrator 19.0.0, SVG Export Plug-In . SVG Version: 6.00 Build 0)  -->
<svg version="1.1" id="Layer_1" xmlns="http://www.w3.org/2000/svg" xmlns:xlink="http://www.w3.org/1999/xlink" x="0px" y="0px"
	 viewBox="0 0 512 512" style="enable-background:new 0 0 512 512;" xml:space="preserve">
<g>
	<g>
		<rect y="495.837" width="512" height="15.642"/>
	</g>
</g>
<g>
	<g>
		<rect x="49.01" y="471.853" width="413.98" height="15.642"/>
	</g>
</g>
<g>
	<g>
		<polygon points="159.544,359.234 159.544,439.527 175.185,439.527 175.185,374.876 336.815,374.876 336.815,439.527 
			352.456,439.527 352.456,359.234 		"/>
	</g>
</g>
<g>
	<g>
		<rect x="159.544" y="336.293" width="192.912" height="15.642"/>
	</g>
</g>
<g>
	<g>
		<rect x="208.554" y="311.267" width="94.892" height="15.642"/>
	</g>
</g>
<g>
	<g>
		<rect x="224.196" y="407.202" width="15.642" height="15.642"/>
	</g>
</g>
<g>
	<g>
		<rect x="272.163" y="407.202" width="15.642" height="15.642"/>
	</g>
</g>
<g>
	<g>
		<polygon points="208.554,96.456 208.554,136.081 224.196,136.081 224.196,112.098 287.805,112.098 287.805,136.081 
			303.446,136.081 303.446,96.456 		"/>
	</g>
</g>
<g>
	<g>
		<path d="M368.098,32.847v15.642h14.391c-3.395,9.011-12.413,15.642-22.685,15.642h-24.032v-0.014
			c-13.556,0-23.984-10.82-23.984-24.119V0.521H200.212v39.476c0,13.299-10.428,24.119-23.984,24.119v0.014h-24.035
			c-10.272,0-19.291-6.631-22.686-15.642h14.395V32.847h-31.283v7.821c0,21.196,18.021,39.104,39.574,39.104h25.078v63.609h-25.026
			v15.642h207.511v-15.642h-25.026V79.772h25.074c21.553,0,39.577-17.908,39.577-39.104v-7.821H368.098z M215.853,39.997V16.163
			h80.293v23.835c0,9.07,3.041,17.435,8.148,24.133h-16.49V23.462h-15.642V64.13h-9.385V23.462h-15.642V64.13h-7.299V23.462h-15.642
			V64.13h-16.49C212.814,57.433,215.853,49.068,215.853,39.997z M319.088,143.381h-56.31V120.44h-15.642v22.941h-54.224V79.772
			h126.175V143.381z"/>
	</g>
</g>
<g>
	<g>
		<path d="M463.511,199.69h-7.821v31.283h15.642v-14.625c14.477,3.232,24.332,15.447,24.332,31.395
			c0,17.634-14.151,31.999-31.631,32.23v-0.018c-28.155,0-54.161-10.67-73.694-30.044c-5.745-5.698-10.74-11.973-14.942-18.699
			v-0.239h-0.148c-10.057-16.196-15.493-35.003-15.493-54.745v-7.821H152.244v7.821c0,19.734-5.429,38.54-15.472,54.745h-0.17v0.274
			c-4.203,6.735-9.2,13.02-14.946,18.728c-18.527,18.406-42.862,28.964-69.337,30.008h-3.932c-17.674,0-32.054-14.463-32.054-32.24
			c0-15.364,10.201-27.9,24.334-31.316v14.547H56.31V199.69h-7.821c-26.801,0-47.796,21.117-47.796,47.966
			c0,26.261,21.169,47.729,47.275,47.958v0.103c1.542,0,40.668-0.093,40.668-0.093v151.202h-8.342v15.642h351.413v-15.642h-8.342
			V295.625h40.245c26.301,0,47.696-21.565,47.696-47.968C511.306,220.36,490.759,199.69,463.511,199.69z M132.737,261.073
			c1.323-1.314,2.611-2.656,3.866-4.022v14.59h15.642v-35.922c8.992-15.644,14.346-33.225,15.509-51.67h0.132v87.593h15.642v-87.593
			h16.684v87.593h15.642v-87.593h15.642v87.593h15.642v-87.593h17.727v87.593h15.642v-87.593h15.642v87.593h15.642v-87.593h16.684
			v87.593h15.642v-87.593h0.129c1.163,18.441,6.519,36.012,15.512,51.642v35.95h15.642v-14.643c1.255,1.365,2.544,2.705,3.869,4.019
			c7.541,7.48,15.927,13.826,24.958,18.967H107.934C116.904,274.85,125.238,268.523,132.737,261.073z M120.961,446.827h-16.684
			v-31.283h16.684V446.827z M407.723,446.827h-16.684v-31.283h16.684V446.827z M407.723,399.902h-16.684v-96.978h-15.642v143.902
			H262.778v-63.609h-15.642v63.609H136.603V302.925h-15.642v96.978h-16.684V295.625h303.446V399.902z"/>
	</g>
</g>
<g>
	<g>
		<path d="M471.332,311.653v-8.728H455.69v8.728h-15.873v79.522h15.873v16.027h15.642v-16.027h16.067v-79.522H471.332z
			 M471.757,375.533h-16.298v-48.239h16.298V375.533z"/>
	</g>
</g>
<g>
	<g>
		<path d="M56.31,311.653v-8.728H40.668v8.728H24.597v79.522h16.071v16.027H56.31v-16.027h15.869v-79.522H56.31z M56.537,375.533
			H40.238v-48.239h16.299V375.533z"/>
	</g>
</g>
<g>
</g>
<g>
</g>
<g>
</g>
<g>
</g>
<g>
</g>
<g>
</g>
<g>
</g>
<g>
</g>
<g>
</g>
<g>
</g>
<g>
</g>
<g>
</g>
<g>
</g>
<g>
</g>
<g>
</g>
</svg>
