<?xml version="1.0" encoding="utf-8"?>
<!-- Generator: Adobe Illustrator 19.0.0, SVG Export Plug-In . SVG Version: 6.00 Build 0)  -->
<svg version="1.1" id="Capa_1" xmlns="http://www.w3.org/2000/svg" xmlns:xlink="http://www.w3.org/1999/xlink" x="0px" y="0px"
	 width="64px" height="64px" viewBox="-372 250.3 64 64" style="enable-background:new -372 250.3 64 64;" xml:space="preserve">
<style type="text/css">
	.st0{fill:#008FFF;}
</style>
<g>
	<path class="st0" d="M-340,314.3c-17.7,0-32-14.3-32-32s14.3-32,32-32s32,14.3,32,32S-322.3,314.3-340,314.3z M-340,252.2
		c-16.6,0-30.1,13.5-30.1,30.1c0,16.6,13.5,30.1,30.1,30.1s30.1-13.5,30.1-30.1C-309.9,265.7-323.4,252.2-340,252.2z"/>
	<path class="st0" d="M-340,314.3c-6.7,0-13.1-2.1-18.5-5.9c-0.3-0.2-0.5-0.5-0.4-0.9c0.1-0.3,0.3-0.7,0.6-0.8c8.1-3,9.3-5.4,9.3-10
		c0-1.2-0.3-1.6-0.8-2.3c-0.7-0.9-1.5-2.3-2.2-5.7c-0.1-0.5-0.2-0.5-0.6-0.7c-1.2-0.5-2.3-1.4-2.5-5.1c0-1.8,0.6-2.8,1.1-3.3
		c-0.1-0.7-0.3-1.7-0.5-2.9c-0.9-5.4-0.9-12,6.7-15.1c6.6-2.7,11.9-1.2,13.5,0.5c1.2,0.1,4.2,0.3,6.3,2.8c3.3,3.7,2.2,12.3,1.9,14.7
		c0.5,0.5,1.1,1.5,1.1,3.3c-0.3,3.8-1.3,4.6-2.5,5.2c-0.5,0.2-0.5,0.3-0.6,0.7c-0.6,3.4-1.5,4.7-2.2,5.7c-0.5,0.7-0.8,1.1-0.8,2.3
		c0,4.6,1.3,7.1,9.3,10c0.3,0.1,0.6,0.4,0.6,0.8c0.1,0.3-0.1,0.7-0.4,0.9C-326.9,312.2-333.3,314.3-340,314.3z M-355.9,307.7
		c4.8,3,10.2,4.5,15.9,4.5s11.1-1.6,15.9-4.5c-6.7-2.7-8.9-5.5-8.9-11.1c0-1.8,0.5-2.6,1.1-3.5s1.3-1.9,1.9-4.9
		c0.3-1.5,1.1-1.9,1.7-2.1c0.6-0.3,1.2-0.6,1.5-3.5c0-1.5-0.7-1.9-0.7-1.9c-0.3-0.2-0.6-0.7-0.5-1.1c0.5-2.6,1.3-10.6-1.3-13.7
		c-1.8-2.1-4.5-2.1-5.1-2.1c-0.1,0-0.2,0-0.3,0c-0.3-0.1-0.7-0.3-0.8-0.5c-0.5-0.9-5.1-2.7-11.5-0.1c-6.3,2.5-6.3,8-5.5,12.9
		c0.3,1.9,0.5,3.5,0.5,3.5c0.1,0.5-0.1,0.9-0.5,1.1l0,0c0,0-0.7,0.4-0.7,1.9c0.2,2.9,0.9,3.1,1.5,3.4c0.5,0.3,1.4,0.7,1.7,2.1
		c0.5,3,1.3,4.1,1.9,4.9c0.6,0.9,1.1,1.6,1.1,3.5C-347,302.2-349.1,305-355.9,307.7z"/>
</g>
</svg>
