<?xml version="1.0" encoding="utf-8"?>
<!-- Generator: Adobe Illustrator 19.0.0, SVG Export Plug-In . SVG Version: 6.00 Build 0)  -->
<svg version="1.1" id="Capa_1" xmlns="http://www.w3.org/2000/svg" xmlns:xlink="http://www.w3.org/1999/xlink" x="0px" y="0px"
	 width="64px" height="64px" viewBox="-372 250.3 64 64" style="enable-background:new -372 250.3 64 64;" xml:space="preserve">
<style type="text/css">
	.st0{fill:#F58E31;}
</style>
<g>
	<path class="st0" d="M-340,314.3c-17.7,0-32-14.3-32-32s14.3-32,32-32s32,14.3,32,32S-322.3,314.3-340,314.3z M-340,252.2
		c-16.5,0-30.1,13.6-30.1,30.1s13.6,30.1,30.1,30.1s30.1-13.6,30.1-30.1S-323.5,252.2-340,252.2z"/>
	<path class="st0" d="M-340,314.3c-6.6,0-13-2.1-18.4-6c-0.2-0.2-0.4-0.6-0.4-1s0.2-0.6,0.6-0.8c7.9-2.9,9.3-5.4,9.3-10.1
		c0-1.1-0.2-1.5-0.8-2.3c-0.6-1-1.5-2.3-2.1-5.6c0-0.6-0.2-0.6-0.6-0.8c-1.1-0.6-2.3-1.3-2.5-5.1c0-1.7,0.6-2.7,1.1-3.3
		c-0.2-0.6-0.4-1.7-0.4-2.9c-1-5.4-1-12,6.6-15.1c6.6-2.7,11.8-1.1,13.6,0.6c1.1,0,4.3,0.4,6.2,2.7c3.3,3.7,2.1,12.4,1.9,14.7
		c0.6,0.6,1.1,1.5,1.1,3.3c-0.2,3.9-1.3,4.7-2.5,5.3c-0.4,0.2-0.6,0.2-0.6,0.8c-0.6,3.5-1.5,4.7-2.1,5.6c-0.6,0.8-0.8,1.1-0.8,2.3
		c0,4.7,1.3,7,9.3,10.1c0.4,0.2,0.6,0.4,0.6,0.8c0,0.4-0.2,0.8-0.4,1C-327,312.1-333.4,314.3-340,314.3z M-355.9,307.7
		c4.9,2.9,10.3,4.5,15.9,4.5s11.1-1.5,15.9-4.5c-6.8-2.7-8.9-5.6-8.9-11.3c0-1.7,0.6-2.5,1.1-3.5c0.6-0.8,1.3-1.9,1.9-5.1
		c0.2-1.5,1.1-1.9,1.7-2.1c0.6-0.2,1.1-0.6,1.3-3.5c0-1.5-0.6-1.9-0.8-1.9c-0.4-0.2-0.6-0.6-0.6-1c0.4-2.5,1.3-10.7-1.3-13.6
		c-1.7-2.1-4.7-2.1-5.1-2.1h-0.2c-0.2,0-0.8-0.2-0.8-0.6c-0.6-1-5.1-2.7-11.5-0.2c-6.2,2.5-6.2,7.9-5.4,13c0.2,1.9,0.6,3.5,0.6,3.5
		c0,0.4-0.2,0.8-0.6,1l0,0c0,0-0.6,0.4-0.6,1.9c0.2,2.9,0.8,3.1,1.3,3.5c0.6,0.2,1.3,0.6,1.7,2.1c0.6,3.1,1.3,4.1,1.9,5.1
		c0.6,0.8,1.1,1.5,1.1,3.5C-347,302.2-349.1,304.9-355.9,307.7z"/>
</g>
</svg>
