<?xml version="1.0" encoding="iso-8859-1"?>
<!-- Generator: Adobe Illustrator 19.0.0, SVG Export Plug-In . SVG Version: 6.00 Build 0)  -->
<svg version="1.1" id="Capa_1" xmlns="http://www.w3.org/2000/svg" xmlns:xlink="http://www.w3.org/1999/xlink" x="0px" y="0px"
	 viewBox="0 0 511 511" style="enable-background:new 0 0 511 511;" xml:space="preserve">
<g>
	<path d="M191.5,211c1.919,0,3.839-0.732,5.303-2.197l8-8c2.929-2.929,2.929-7.677,0-10.606c-2.929-2.929-7.678-2.929-10.606,0l-8,8
		c-2.929,2.929-2.929,7.677,0,10.606C187.661,210.268,189.581,211,191.5,211z"/>
	<path d="M266.197,200.803c1.464,1.464,3.384,2.197,5.303,2.197s3.839-0.732,5.303-2.197c2.929-2.929,2.929-7.677,0-10.606l-8-8
		c-2.929-2.929-7.678-2.929-10.606,0c-2.929,2.929-2.929,7.677,0,10.606L266.197,200.803z"/>
	<path d="M402.197,192.803c1.464,1.464,3.384,2.197,5.303,2.197s3.839-0.732,5.303-2.197c2.929-2.929,2.929-7.677,0-10.606l-8-8
		c-2.929-2.929-7.678-2.929-10.606,0c-2.929,2.929-2.929,7.677,0,10.606L402.197,192.803z"/>
	<path d="M218.197,136.803c1.464,1.464,3.384,2.197,5.303,2.197s3.839-0.732,5.303-2.197c2.929-2.929,2.929-7.677,0-10.606l-8-8
		c-2.929-2.929-7.678-2.929-10.606,0c-2.929,2.929-2.929,7.677,0,10.606L218.197,136.803z"/>
	<path d="M159.5,171c1.919,0,3.839-0.732,5.303-2.197l8-8c2.929-2.929,2.929-7.677,0-10.606c-2.929-2.929-7.678-2.929-10.606,0l-8,8
		c-2.929,2.929-2.929,7.677,0,10.606C155.661,170.268,157.581,171,159.5,171z"/>
	<path d="M106.197,200.803c1.464,1.464,3.384,2.197,5.303,2.197s3.839-0.732,5.303-2.197c2.929-2.929,2.929-7.677,0-10.606l-8-8
		c-2.929-2.929-7.678-2.929-10.606,0c-2.929,2.929-2.929,7.677,0,10.606L106.197,200.803z"/>
	<path d="M335.5,211c1.919,0,3.839-0.732,5.303-2.197l8-8c2.929-2.929,2.929-7.677,0-10.606c-2.929-2.929-7.678-2.929-10.606,0l-8,8
		c-2.929,2.929-2.929,7.677,0,10.606C331.661,210.268,333.581,211,335.5,211z"/>
	<path d="M287.5,147c1.919,0,3.839-0.732,5.303-2.197l8-8c2.929-2.929,2.929-7.677,0-10.606c-2.929-2.929-7.678-2.929-10.606,0l-8,8
		c-2.929,2.929-2.929,7.677,0,10.606C283.661,146.268,285.581,147,287.5,147z"/>
	<path d="M335.5,163c1.919,0,3.839-0.732,5.303-2.197l8-8c2.929-2.929,2.929-7.677,0-10.606c-2.929-2.929-7.678-2.929-10.606,0l-8,8
		c-2.929,2.929-2.929,7.677,0,10.606C331.661,162.268,333.581,163,335.5,163z"/>
	<path d="M479.5,308H471v-21.567c0.001,0,0.003-0.001,0.004-0.001C475.46,284.59,479.309,283,487.5,283c4.142,0,7.5-3.358,7.5-7.5
		s-3.358-7.5-7.5-7.5c-7.364,0-12.42,1.057-16.5,2.39V251h0.5c13.397,0,23.5-10.105,23.5-23.507V203.5
		c0-15.883-21.454-47.702-61.214-75.386C399.641,104.34,340.994,76,255.5,76s-144.141,28.34-178.286,52.114
		C37.454,155.798,16,187.617,16,203.5v23.993C16,240.895,26.103,251,39.5,251H40v19.402C35.923,269.063,30.87,268,23.5,268
		c-4.142,0-7.5,3.358-7.5,7.5s3.358,7.5,7.5,7.5c8.162,0,11.997,1.589,16.438,3.429c0.021,0.009,0.042,0.018,0.062,0.026V308h-8.5
		C14.131,308,0,322.131,0,339.5v16C0,372.869,14.131,387,31.5,387H32v8.528C32,417.293,49.707,435,71.472,435h368.057
		C461.293,435,479,417.293,479,395.528V387h0.5c17.369,0,31.5-14.131,31.5-31.5v-16C511,322.131,496.869,308,479.5,308z M31,227.493
		V203.5c0-8.421,16.543-36.448,54.786-63.076C118.167,117.877,173.897,91,255.5,91s137.333,26.877,169.714,49.424
		C463.457,167.052,480,195.079,480,203.5v23.993c0,5.009-3.495,8.507-8.5,8.507h-432C34.495,236,31,232.502,31,227.493z M456,251
		v24.468c-2.018,0.333-4.349,0.532-7.221,0.532c-8.192,0-12.04-1.59-16.496-3.432c-5.182-2.142-11.056-4.568-22.225-4.568
		c-11.163,0-17.034,2.428-22.213,4.569c-4.452,1.841-8.297,3.431-16.481,3.431c-8.175,0-12.016-1.59-16.462-3.43
		c-5.176-2.143-11.042-4.57-22.198-4.57c-11.155,0-17.021,2.428-22.196,4.57c-4.446,1.84-8.287,3.43-16.459,3.43
		c-8.176,0-12.018-1.59-16.465-3.43c-5.177-2.142-11.044-4.57-22.201-4.57c-11.157,0-17.024,2.428-22.2,4.57
		c-4.448,1.84-8.289,3.43-16.465,3.43c-8.176,0-12.018-1.59-16.465-3.43c-5.177-2.142-11.043-4.57-22.201-4.57
		c-11.153,0-17.019,2.428-22.193,4.57c-4.445,1.84-8.285,3.43-16.456,3.43c-8.166,0-12.002-1.589-16.445-3.429
		c-5.173-2.142-11.036-4.571-22.185-4.571c-11.154,0-17.021,2.428-22.196,4.57c-4.446,1.84-8.286,3.43-16.458,3.43
		c-2.825,0-5.124-0.194-7.117-0.519V251H456z M55,290.621c2.117,0.239,4.463,0.379,7.117,0.379c11.154,0,17.02-2.428,22.195-4.57
		c4.446-1.84,8.286-3.43,16.458-3.43c8.166,0,12.002,1.589,16.445,3.429c5.173,2.142,11.036,4.571,22.185,4.571
		c11.153,0,17.018-2.428,22.193-4.57c4.445-1.84,8.285-3.43,16.456-3.43c8.176,0,12.018,1.59,16.465,3.43
		c5.176,2.142,11.044,4.57,22.201,4.57c11.157,0,17.024-2.428,22.201-4.57c4.448-1.84,8.289-3.43,16.465-3.43
		c8.176,0,12.018,1.59,16.466,3.43c5.177,2.142,11.044,4.57,22.201,4.57c11.155,0,17.021-2.428,22.196-4.57
		c4.447-1.84,8.287-3.43,16.46-3.43c8.174,0,12.015,1.589,16.462,3.43c5.176,2.143,11.043,4.57,22.199,4.57
		c11.163,0,17.034-2.428,22.213-4.569c4.452-1.841,8.297-3.431,16.481-3.431c8.192,0,12.04,1.59,16.496,3.432
		c5.182,2.142,11.056,4.568,22.225,4.568c2.696,0,5.078-0.144,7.221-0.389V308H247.5h-8h-0.003c-0.001,0-0.002,0-0.003,0
		C226.538,308.004,216,318.544,216,331.5v8c0,2.498-1.093,4.859-2.999,6.48c-1.931,1.642-4.412,2.316-6.984,1.898
		c-3.935-0.64-7.017-4.697-7.017-9.234v-6.288c0-11.886-8.43-22.221-19.609-24.04c-6.884-1.12-13.851,0.803-19.11,5.277
		C155.018,318.069,152,324.596,152,331.5v47.144c0,4.538-3.082,8.594-7.017,9.234c-2.572,0.416-5.053-0.255-6.984-1.898
		c-1.906-1.621-2.999-3.983-2.999-6.48v-40c0-17.369-14.132-31.5-31.502-31.5H55V290.621z M15,355.5v-16
		c0-9.098,7.402-16.5,16.5-16.5h72c9.098,0,16.5,7.402,16.5,16.5V372H31.5C22.402,372,15,364.598,15,355.5z M464,395.528
		C464,409.022,453.022,420,439.528,420H71.472C57.978,420,47,409.022,47,395.528V387h74.226c1.345,3.999,3.76,7.604,7.055,10.407
		c4.278,3.638,9.682,5.589,15.255,5.589c1.28,0,2.57-0.104,3.855-0.313c8.439-1.373,15.305-7.601,18.167-15.684H464V395.528z
		 M496,355.5c0,9.098-7.402,16.5-16.5,16.5H167v-40.5c0-2.498,1.093-4.859,2.999-6.48c1.931-1.642,4.412-2.316,6.984-1.898
		c3.935,0.64,7.017,4.697,7.017,9.234v6.288c0,11.886,8.43,22.221,19.609,24.04c6.883,1.119,13.85-0.803,19.11-5.277
		c5.263-4.476,8.281-11.002,8.281-17.907v-8c0-4.687,3.813-8.5,8.5-8.5h8h232c9.098,0,16.5,7.402,16.5,16.5V355.5z"/>
</g>
<g>
</g>
<g>
</g>
<g>
</g>
<g>
</g>
<g>
</g>
<g>
</g>
<g>
</g>
<g>
</g>
<g>
</g>
<g>
</g>
<g>
</g>
<g>
</g>
<g>
</g>
<g>
</g>
<g>
</g>
</svg>
