<?xml version="1.0" encoding="iso-8859-1"?>
<!-- Generator: Adobe Illustrator 18.0.0, SVG Export Plug-In . SVG Version: 6.00 Build 0)  -->
<!DOCTYPE svg PUBLIC "-//W3C//DTD SVG 1.1//EN" "http://www.w3.org/Graphics/SVG/1.1/DTD/svg11.dtd">
<svg version="1.1" id="Capa_1" xmlns="http://www.w3.org/2000/svg" xmlns:xlink="http://www.w3.org/1999/xlink" x="0px" y="0px"
	 viewBox="0 0 484.023 484.023" style="enable-background:new 0 0 484.023 484.023;" xml:space="preserve">
<g>
	<path d="M95.873,226.137h52.512c3.866,0,7-3.134,7-7v-80.098c0-3.866-3.134-7-7-7H95.873c-3.866,0-7,3.134-7,7v80.098
		C88.873,223.003,92.007,226.137,95.873,226.137z M102.873,212.137v-56.57l38.512,15.304v41.266H102.873z"/>
	<path d="M37.512,226.137h32.785c3.866,0,7-3.134,7-7v-54.648v-20.54v-4.911c0-3.866-3.134-7-7-7H37.512c-3.866,0-7,3.134-7,7
		v80.098C30.512,223.003,33.646,226.137,37.512,226.137z M44.512,212.137v-50.362l18.785,7.465v42.897H44.512z"/>
	<path d="M173.961,226.137h52.508c3.866,0,7-3.134,7-7v-80.098c0-3.866-3.134-7-7-7h-52.508c-3.866,0-7,3.134-7,7v80.098
		C166.961,223.003,170.095,226.137,173.961,226.137z M180.961,212.137v-56.569l38.508,15.302v41.267H180.961z"/>
	<path d="M252.045,226.137h52.51c3.866,0,7-3.134,7-7v-80.098c0-3.866-3.134-7-7-7h-52.51c-3.866,0-7,3.134-7,7v80.098
		C245.045,223.003,248.179,226.137,252.045,226.137z M259.045,212.137v-56.569l38.51,15.303v41.266H259.045z"/>
	<path d="M91.928,329.545c-6.916,0-12.543,5.627-12.543,12.544c0,6.916,5.627,12.543,12.543,12.543
		c6.916,0,12.543-5.627,12.543-12.543C104.471,335.172,98.844,329.545,91.928,329.545z"/>
	<path d="M457.988,97.272H26.035C11.68,97.272,0,108.951,0,123.306v135.227c0,5.81,2.264,11.098,5.95,15.039
		C2.264,277.515,0,282.803,0,288.614v30.039c0,10.818,8.801,19.619,19.619,19.619h27.818c-0.106,1.26-0.174,2.53-0.174,3.817
		c0,24.627,20.038,44.662,44.668,44.662c24.627,0,44.662-20.036,44.662-44.663c0-1.287-0.067-2.557-0.174-3.816h16.154
		c0.008,0,0.016,0,0.02,0h195.008c-0.107,1.259-0.168,2.531-0.168,3.817c0,24.627,20.038,44.663,44.668,44.663
		c24.627,0,44.662-20.036,44.662-44.663c0-1.286-0.061-2.558-0.168-3.816h40.428c3.866,0,7-3.134,7-7V123.306
		C484.023,108.951,472.344,97.272,457.988,97.272z M455.125,164.015l14.898,5.92v42.202h-14.898V164.015z M417.625,297.423h-33.69
		V146.039h33.69V297.423z M369.244,297.423h-33.689V146.039h33.689V297.423z M431.625,280.573h38.398v16.851h-38.398V280.573z
		 M26.035,111.272h431.953c6.636,0,12.035,5.398,12.035,12.034v8.732h-21.898c-3.866,0-7,3.134-7,7v4.911v9.752v65.436
		c0,3.866,3.134,7,7,7h21.898v40.436h-38.398V139.039c0-3.866-3.134-7-7-7h-96.07c-3.866,0-7,3.134-7,7v127.535H43.012
		c-3.866,0-7,3.134-7,7c0,3.866,3.134,7,7,7h278.543v16.851L14,297.425v-8.812c0-4.433,3.606-8.04,8.039-8.04h0.001h0.001
		c3.866,0,7-3.134,7-7c0-3.866-3.134-7-7-7c-4.434,0-8.041-3.607-8.041-8.04V123.306C14,116.671,19.399,111.272,26.035,111.272z
		 M19.619,324.271c-3.099,0-5.619-2.521-5.619-5.619v-7.227h45.498c-3.533,3.734-6.431,8.072-8.516,12.846H19.619z M91.932,372.751
		H91.93c-16.909,0-30.666-13.755-30.666-30.662c0-16.878,13.707-30.613,30.573-30.663h0.186
		c16.865,0.05,30.571,13.785,30.571,30.663C122.594,358.995,108.839,372.751,91.932,372.751z M392.102,372.751H392.1
		c-16.909,0-30.666-13.755-30.666-30.663c0-0.239,0.015-0.475,0.021-0.713l18.319,2.997c1.078,5.828,6.19,10.258,12.326,10.258
		c4.705,0,8.809-2.607,10.954-6.45l18.334,2.999C417.504,363.662,405.845,372.751,392.102,372.751z M470.023,324.271H154.948
		l-16.763-12.846l331.838-0.001V324.271z"/>
</g>
<g>
</g>
<g>
</g>
<g>
</g>
<g>
</g>
<g>
</g>
<g>
</g>
<g>
</g>
<g>
</g>
<g>
</g>
<g>
</g>
<g>
</g>
<g>
</g>
<g>
</g>
<g>
</g>
<g>
</g>
</svg>
