<?xml version="1.0" encoding="iso-8859-1"?>
<!-- Generator: Adobe Illustrator 19.0.0, SVG Export Plug-In . SVG Version: 6.00 Build 0)  -->
<svg version="1.1" id="Layer_1" xmlns="http://www.w3.org/2000/svg" xmlns:xlink="http://www.w3.org/1999/xlink" x="0px" y="0px"
	 viewBox="0 0 511.999 511.999" style="enable-background:new 0 0 511.999 511.999;" xml:space="preserve">
<circle cx="295.608" cy="86.351" r="6.776"/>
<circle cx="335.617" cy="86.351" r="6.776"/>
<path d="M334.51,102.209c-3.229-2.781-8.102-2.417-10.881,0.814c-0.801,0.931-3.687,2.408-8.018,2.408
	c-4.331,0-7.217-1.477-8.018-2.409c-2.781-3.229-7.652-3.595-10.881-0.815c-3.23,2.78-3.595,7.652-0.815,10.881
	c4.19,4.868,11.56,7.774,19.715,7.774c8.154,0,15.523-2.905,19.712-7.772C338.103,109.861,337.739,104.989,334.51,102.209z"/>
<path d="M462.759,206.591c0-15.938-10.412-29.482-24.788-34.209c0.896-8.336,2.072-16.044-2.812-23.454
	c-4.243-6.437-11.554-10.646-19.311-10.646c-7.62,0-14.853,3.958-19.12,10.246c-3.891,5.734-4.089,12.417-4.805,19.071
	c-4.471-0.768-8.917-1.668-13.331-2.733c-10.392-2.508-20.66-5.851-30.519-9.935c-2.429-1.006-4.826-2.069-7.197-3.157
	c1.811,0.78,7.691-3.796,9.162-4.704c18.429-11.366,30.438-32.044,31.221-53.677c0.307-8.466-1.078-16.987-3.995-24.937
	c5.01-3.56,8.295-9.397,8.295-15.997c0-9.43-6.686-17.322-15.564-19.2C362.19,13.433,342.85,0,321.184,0h-11.148
	c-21.666,0-41.006,13.433-48.81,33.261c-8.878,1.878-15.564,9.77-15.564,19.2c0,6.601,3.285,12.437,8.295,15.997
	c-1.147,3.126-2.054,6.34-2.717,9.609l-19.155-12.77c-17.683-11.788-41.369-7.59-53.923,9.557l-13.695,18.704
	c-2.517,3.439-1.771,8.266,1.668,10.784c3.437,2.516,8.266,1.772,10.784-1.668l13.695-18.705
	c7.663-10.466,22.12-13.028,32.913-5.833l9.902,6.602c-0.013,0.002-0.026,0.006-0.039,0.009
	c-17.341,3.359-30.279,20.163-29.125,37.76l-61.748,84.338l-7.116-4.745c-5.54-3.693-9.231-9.338-10.394-15.895
	c-1.163-6.556,0.364-13.126,4.297-18.498l29.165-39.835c2.517-3.438,1.771-8.266-1.668-10.784
	c-3.438-2.516-8.266-1.772-10.784,1.668l-29.165,39.835c-6.445,8.802-8.945,19.566-7.042,30.307
	c1.903,10.74,7.951,19.99,17.028,26.041l5.557,3.706c-6.852,10.215-10.55,22.348-10.399,34.907c0.032,2.629,0.251,5.229,0.611,7.8
	V362.88l-71.781,93.868c-0.027,0.035-0.046,0.074-0.073,0.11c-0.964,1.303-1.514,2.954-1.514,4.577v37.052
	c0,4.261,3.455,7.716,7.716,7.716h96.669c4.261,0,7.716-3.455,7.716-7.716v-6.486c0-15.697-9.5-29.211-23.05-35.112l50.175-51.334
	c7.287-7.287,11.299-16.975,11.299-27.279v-31.603l19.404,16.274v98.488v37.052c0,4.261,3.455,7.716,7.716,7.716h96.669
	c4.261,0,7.716-3.455,7.716-7.716v-6.486c0-19.983-15.393-36.428-34.942-38.127V344.955c0-11.436-5.026-22.21-13.788-29.558
	l-37.258-31.25l53.37-72.894c4.266,2.215,8.589,4.335,12.983,6.335c3.879,1.765,8.453,0.052,10.219-3.826s0.052-8.453-3.826-10.219
	c-28.43-12.939-54.58-31.072-76.664-53.166c-8.14-8.14-20.622-15.88-21.669-28.488c-0.897-10.793,7.032-20.74,17.773-22.159
	c5.597-0.739,11.43,0.81,15.982,4.66c0.438,0.371,0.871,0.75,1.268,1.146c11.408,11.381,22.582,23.086,35.264,33.081
	c7.906,6.231,16.243,11.928,24.929,17.017c0.01,0.006,0.021,0.012,0.039,0.023c16.882,9.331,34.185,17.175,52.814,22.343
	l-8.199,40.422c-3.841-1.024-7.72-2.152-11.589-3.373c-4.066-1.283-8.398,0.972-9.681,5.036c-1.283,4.064,0.972,8.398,5.036,9.681
	c6.306,1.991,12.643,3.75,18.891,5.246c7.278,1.702,14.605,3.146,21.991,4.289l-26.56,247.075
	c-1.364,12.69,7.85,24.125,20.54,25.489c0.824,0.088,1.664,0.134,2.494,0.134c11.842,0,21.729-8.888,22.996-20.674l26.759-248.915
	C448.569,240.556,462.759,225.2,462.759,206.591z M320.684,141.116c-3.545-2.134-7.026-4.375-10.436-6.721
	c-0.037-0.025-0.074-0.05-0.111-0.076c-1.613-1.119-35.809-28.051-34.386-29.574c7.023-7.518,11.374-17.212,12.199-27.637
	l0.397-5.018h54.522l0.397,5.017c1.07,13.519,7.933,25.591,18.697,33.419C355.014,127.108,339.434,139.241,320.684,141.116z
	 M365.868,91.115c0,0.711-0.021,1.417-0.05,2.121c-4.103-4.799-6.65-10.822-7.166-17.347l-0.3-3.799h3.784
	C364.614,78.116,365.868,84.495,365.868,91.115z M365.931,48.264c2.315,0,4.197,1.883,4.197,4.197c0,2.315-1.883,4.197-4.197,4.197
	h-15.932H281.22H265.29c-2.315,0-4.197-1.883-4.197-4.197c0-2.315,1.883-4.197,4.197-4.197h1.616h97.407H365.931z M272.568,75.891
	c-0.383,4.834-1.906,9.437-4.384,13.474l-2.696-1.797c0.369-5.355,1.565-10.537,3.599-15.477h3.783L272.568,75.891z M310.036,15.432
	h11.148c12.962,0,24.748,6.806,31.393,17.401h-73.936C285.288,22.238,297.074,15.432,310.036,15.432z M145.877,490.773H64.673
	v-21.621h58.386l0,0C135.248,469.153,145.237,478.744,145.877,490.773z M184.335,333.732v44.546c0,6.183-2.407,11.995-6.841,16.431
	l-57.682,59.013H72.57l63.883-83.541c1.029-1.346,1.586-2.993,1.586-4.687v-71.296c0.134,0.146,0.281,0.281,0.416,0.426
	c1.716,1.844,3.54,3.599,5.471,5.217L184.335,333.732z M315.806,490.773h-81.204v-21.621h54.011h4.376
	C305.176,469.153,315.166,478.744,315.806,490.773z M280.896,344.955v108.767h-46.295v-94.371c0-2.282-1.009-4.445-2.757-5.911
	c-15.375-12.896-30.746-25.797-46.121-38.691c-20.077-16.838-47.936-31.545-48.295-61.379c-0.128-10.523,3.347-20.654,9.713-28.81
	c0.657-0.252,1.281-0.6,1.856-1.03l26.131,21.917c0,0,54.705,45.883,54.708,45.885l42.789,35.889
	C277.882,331.629,280.896,338.093,280.896,344.955z M285.047,203.712l-51.615,70.497l-75.035-62.934l6.643-9.073
	c0,0,45.323-61.902,45.322-61.901c-1.107,1.594,18.196,19.097,20.089,20.989c0.028,0.028,0.058,0.055,0.085,0.082
	c16.257,16.241,34.527,30.402,54.253,42.181C284.877,203.605,284.961,203.66,285.047,203.712z M407.225,169.641l0.971-9.033
	c0.452-4.208,4.221-7.307,8.497-6.846c4.23,0.455,7.302,4.266,6.846,8.497l-0.889,8.266c-2.309-0.043-4.615-0.124-6.921-0.248
	C412.891,170.123,410.054,169.913,407.225,169.641z M388.339,489.676c-0.423,3.929-3.712,6.892-7.652,6.892
	c-0.281,0-0.565-0.015-0.844-0.045c-4.23-0.455-7.302-4.266-6.846-8.497l26.531-246.786c0.11,0.011,0.221,0.017,0.331,0.028
	c4.961,0.497,9.936,0.807,14.915,1.043c0.053,0.002,0.106,0.006,0.158,0.009L388.339,489.676z M426.752,227.167
	c-17.494,0-35.008-1.751-52.153-5.231l8.182-40.332c-0.063,0.285,18.204,2.902,19.867,3.083c8.007,0.838,16.051,1.328,24.104,1.328
	c11.345,0,20.575,9.23,20.575,20.575C447.327,217.937,438.097,227.167,426.752,227.167z"/>
<g>
</g>
<g>
</g>
<g>
</g>
<g>
</g>
<g>
</g>
<g>
</g>
<g>
</g>
<g>
</g>
<g>
</g>
<g>
</g>
<g>
</g>
<g>
</g>
<g>
</g>
<g>
</g>
<g>
</g>
</svg>
