<?xml version="1.0" encoding="iso-8859-1"?>
<!-- Generator: Adobe Illustrator 19.0.0, SVG Export Plug-In . SVG Version: 6.00 Build 0)  -->
<svg version="1.1" id="Capa_1" xmlns="http://www.w3.org/2000/svg" xmlns:xlink="http://www.w3.org/1999/xlink" x="0px" y="0px"
	 viewBox="0 0 470 470" style="enable-background:new 0 0 470 470;" xml:space="preserve">
<g>
	<path d="M424.788,24.931C421.611,23.914,345.704,0,235,0S48.389,23.914,45.212,24.931c-3.177,1.018-5.299,4.011-5.209,7.345
		c0.042,1.572,4.4,158.362,17.563,257.213c3.19,23.962,12.568,70.072,39.526,109.668c14.549,21.368,32.431,38.178,53.149,49.963
		C174.6,462.975,203.117,470,235,470s60.4-7.025,84.759-20.879c20.719-11.785,38.601-28.595,53.149-49.963
		c26.958-39.596,36.336-85.706,39.526-109.668c13.162-98.852,17.521-255.641,17.563-257.213
		C430.087,28.942,427.965,25.949,424.788,24.931z M307.915,438.581c4.01-57.904,37.178-110.226,87.717-138.628
		C388.323,341.174,367.418,407.884,307.915,438.581z M398.325,281.651c-30.584,14.819-56.551,37.602-75.258,66.146
		c-19.069,29.096-29.558,62.721-30.491,97.547C276.06,451.455,257.004,455,235,455c-22.004,0-41.061-3.545-57.576-9.657
		c-0.517-19.379-3.978-38.401-10.324-56.614c-1.363-3.912-5.64-5.98-9.55-4.615c-0.05,0.018-0.097,0.041-0.147,0.06
		c-3.814,1.419-5.813,5.629-4.468,9.491c5.053,14.502,8.115,29.565,9.157,44.92c-59.504-30.693-80.411-97.397-87.722-138.62
		c27.528,15.515,50.73,38.642,66.213,66.267c1.376,2.453,3.924,3.834,6.55,3.834c1.191,0,2.396-0.293,3.516-0.89
		c0.047-0.025,0.097-0.042,0.144-0.069c3.613-2.025,4.9-6.596,2.876-10.209c-18.677-33.322-47.689-60.625-81.998-77.273
		C60.598,194.291,56.071,66.188,55.171,37.64C74.368,32.264,143.183,15,235,15c91.823,0,160.639,17.266,179.829,22.64
		C413.928,66.191,409.401,194.316,398.325,281.651z"/>
	<path d="M205.802,192.248c1.52-1.685,2.135-3.887,1.86-5.996c0.734-21.609-7.525-42.671-22.825-57.971
		c-15.622-15.621-37.241-23.928-59.331-22.792c-4.137,0.213-7.317,3.739-7.104,7.875s3.722,7.314,7.876,7.105
		c17.855-0.923,35.328,5.794,47.952,18.418c8.484,8.484,14.283,19.164,16.905,30.672c-12.746-8.503-27.839-13.194-43.402-13.194
		c-22.092,0-43.258,9.417-58.069,25.836c-2.574,2.854-2.574,7.193,0,10.047c14.812,16.42,35.978,25.837,58.069,25.837
		S190.99,208.668,205.802,192.248z M189.587,187.225c-11.491,10.152-26.392,15.86-41.854,15.86s-30.363-5.708-41.854-15.86
		c11.491-10.151,26.393-15.86,41.854-15.86S178.096,177.073,189.587,187.225z"/>
	<path d="M264.199,192.248c14.812,16.42,35.978,25.837,58.069,25.837s43.258-9.417,58.069-25.837c2.574-2.854,2.574-7.193,0-10.047
		c-14.812-16.419-35.978-25.836-58.069-25.836c-15.563,0-30.656,4.692-43.403,13.195c2.622-11.508,8.421-22.189,16.906-30.673
		c12.623-12.624,30.12-19.335,47.951-18.418c4.157,0.207,7.663-2.969,7.876-7.105s-2.968-7.663-7.104-7.875
		c-22.086-1.133-43.709,7.171-59.33,22.792c-15.302,15.302-23.562,36.366-22.826,57.977
		C262.065,188.365,262.681,190.564,264.199,192.248z M364.123,187.225c-11.491,10.152-26.392,15.86-41.854,15.86
		s-30.363-5.708-41.854-15.86c11.491-10.151,26.393-15.86,41.854-15.86S352.632,177.073,364.123,187.225z"/>
	<path d="M272.5,329.4H260c-7.796,0-13.007,3.572-17.194,6.442c-3.315,2.272-5.313,3.558-7.806,3.558s-4.49-1.286-7.806-3.558
		c-4.188-2.87-9.398-6.442-17.194-6.442h-12.5c-4.143,0-7.5,3.358-7.5,7.5s3.357,7.5,7.5,7.5H210c3.002,0,5.159,1.378,8.714,3.815
		c4.021,2.755,9.024,6.185,16.286,6.185s12.266-3.43,16.286-6.185c3.555-2.437,5.712-3.815,8.714-3.815h12.5
		c4.143,0,7.5-3.358,7.5-7.5S276.643,329.4,272.5,329.4z"/>
	<path d="M214.697,292.204c1.464,1.464,3.384,2.196,5.303,2.196s3.839-0.732,5.304-2.197c2.929-2.929,2.929-7.678-0.001-10.607
		l-4.143-4.142c-2.928-2.929-7.677-2.928-10.606,0c-2.929,2.929-2.929,7.678,0.001,10.607L214.697,292.204z"/>
	<path d="M250,294.4c1.919,0,3.839-0.732,5.303-2.196l4.143-4.142c2.93-2.929,2.93-7.678,0.001-10.607
		c-2.929-2.928-7.678-2.929-10.606,0l-4.143,4.142c-2.93,2.929-2.93,7.678-0.001,10.607C246.161,293.668,248.08,294.4,250,294.4z"/>
</g>
<g>
</g>
<g>
</g>
<g>
</g>
<g>
</g>
<g>
</g>
<g>
</g>
<g>
</g>
<g>
</g>
<g>
</g>
<g>
</g>
<g>
</g>
<g>
</g>
<g>
</g>
<g>
</g>
<g>
</g>
</svg>
