<?xml version="1.0" encoding="iso-8859-1"?>
<!-- Generator: Adobe Illustrator 19.0.0, SVG Export Plug-In . SVG Version: 6.00 Build 0)  -->
<svg version="1.1" id="Capa_1" xmlns="http://www.w3.org/2000/svg" xmlns:xlink="http://www.w3.org/1999/xlink" x="0px" y="0px"
	 viewBox="0 0 463 463" style="enable-background:new 0 0 463 463;" xml:space="preserve">
<path d="M439,207.5c0-10.825-7.36-19.959-17.337-22.674c-2.151-18.241-6.888-35.956-14.118-52.794
	c7.264-7.341,9.062-18.917,3.655-28.282c-5.414-9.377-16.359-13.608-26.359-10.966c-10.989-14.674-23.949-27.638-38.625-38.629
	c2.639-9.999-1.591-20.941-10.967-26.355c-5.436-3.139-11.769-3.972-17.833-2.348c-4.011,1.075-7.57,3.157-10.44,6.006
	c-16.841-7.233-34.559-11.97-52.804-14.121C251.46,7.36,242.326,0,231.5,0c-10.826,0-19.96,7.36-22.675,17.338
	c-18.245,2.151-35.96,6.889-52.801,14.122c-2.87-2.85-6.43-4.933-10.441-6.008c-6.064-1.624-12.397-0.792-17.833,2.348
	c-9.376,5.414-13.606,16.357-10.967,26.356c-14.672,10.988-27.64,23.951-38.631,38.627c-9.998-2.638-20.94,1.592-26.352,10.968
	c-5.406,9.363-3.61,20.935,3.649,28.276c-7.23,16.838-11.963,34.562-14.115,52.8C31.358,187.542,24,196.676,24,207.5
	c0,10.825,7.359,19.959,17.336,22.674c2.152,18.246,6.895,35.969,14.124,52.802c-2.85,2.87-4.933,6.43-6.008,10.441
	c-1.625,6.063-0.791,12.396,2.348,17.833c4.348,7.531,12.263,11.745,20.391,11.745c1.994,0,4.001-0.254,5.972-0.775
	c10.989,14.673,23.946,27.632,38.621,38.622c-2.641,10,1.589,20.944,10.967,26.358c3.691,2.131,7.726,3.144,11.71,3.144
	c6.124,0,12.127-2.396,16.575-6.798c3.159,1.356,6.348,2.626,9.567,3.807L146.039,448H119.5c-4.142,0-7.5,3.358-7.5,7.5
	s3.358,7.5,7.5,7.5h224c4.142,0,7.5-3.358,7.5-7.5s-3.358-7.5-7.5-7.5h-26.539l-19.564-60.647c3.219-1.18,6.408-2.45,9.567-3.806
	c4.448,4.402,10.45,6.797,16.575,6.797c3.984,0,8.02-1.013,11.71-3.144c9.377-5.414,13.607-16.359,10.966-26.358
	c14.674-10.989,27.633-23.949,38.622-38.622c1.97,0.521,3.977,0.774,5.971,0.774c8.127,0,16.043-4.215,20.391-11.746
	c5.407-9.365,3.609-20.941-3.655-28.282c7.23-16.837,11.967-34.552,14.118-52.794C431.641,227.459,439,218.325,439,207.5z
	 M394.114,276.219c-3.083-0.433-6.25-0.248-9.348,0.582c-3.559,0.954-6.76,2.706-9.444,5.075l-29.863-17.241
	c7.595-15.087,12.279-31.878,13.315-49.635h34.461c2.189,6.481,7.129,11.702,13.427,14.269
	C404.671,245.475,400.463,261.222,394.114,276.219z M253.269,382.662c-2.567-6.299-7.788-11.239-14.269-13.427v-34.461
	c8.388-0.489,16.562-1.786,24.442-3.826l15.07,46.718C270.254,379.943,261.826,381.611,253.269,382.662z M209.731,382.662
	c-8.556-1.051-16.985-2.719-25.243-4.996l15.07-46.719c7.879,2.04,16.054,3.337,24.441,3.826v34.461
	C217.519,371.424,212.298,376.364,209.731,382.662z M87.684,281.873c-5.144-4.525-12.046-6.577-18.793-5.64
	c-6.349-14.996-10.569-30.75-12.562-46.96c6.303-2.565,11.246-7.789,13.436-14.272h34.461c1.035,17.757,5.72,34.547,13.314,49.635
	L87.684,281.873z M68.889,138.767c1.073,0.149,2.15,0.229,3.223,0.229c5.676,0,11.245-2.062,15.572-5.868l29.857,17.238
	c-7.595,15.087-12.279,31.878-13.314,49.634H69.766c-2.189-6.481-7.129-11.703-13.428-14.269
	C58.329,169.524,62.538,153.768,68.889,138.767z M162.767,44.891c15.004-6.353,30.753-10.562,46.964-12.553
	c2.567,6.298,7.788,11.238,14.269,13.427v34.461c-17.756,1.035-34.547,5.719-49.634,13.314l-17.238-29.857
	C161.653,58.54,163.704,51.639,162.767,44.891z M253.269,32.338c16.21,1.991,31.961,6.201,46.964,12.554
	c-0.937,6.747,1.115,13.649,5.639,18.792l-17.238,29.857C273.547,85.946,256.757,81.262,239,80.227V45.766
	C245.481,43.576,250.703,38.637,253.269,32.338z M375.322,133.125c2.684,2.369,5.885,4.121,9.444,5.075
	c2.025,0.542,4.079,0.811,6.121,0.811c1.082,0,2.159-0.081,3.227-0.231c6.349,14.999,10.558,30.746,12.548,46.951
	c-6.299,2.567-11.238,7.788-13.427,14.269h-34.461c-1.035-17.756-5.72-34.547-13.315-49.634L375.322,133.125z M343.745,200h-73.468
	c-0.356-1.846-0.844-3.646-1.448-5.391l63.618-36.73C338.792,170.735,342.75,184.968,343.745,200z M231.5,183
	c13.509,0,24.5,10.991,24.5,24.5c0,8.178-4.031,15.427-10.207,19.88l-7.156-22.182C237.639,202.1,234.755,200,231.5,200
	s-6.139,2.1-7.138,5.197l-7.156,22.183C211.031,222.927,207,215.678,207,207.5C207,193.991,217.991,183,231.5,183z M231.5,232
	c-0.008,0-0.015,0-0.023,0l0.023-0.07l0.023,0.07C231.515,232,231.508,232,231.5,232z M261.31,181.629
	c-1.22-1.404-2.536-2.719-3.939-3.939l36.73-63.618c12.164,8.177,22.651,18.664,30.827,30.827L261.31,181.629z M244.391,170.172
	c-1.746-0.605-3.545-1.092-5.391-1.448V95.256c15.032,0.995,29.266,4.953,42.121,11.298L244.391,170.172z M224,95.256v73.467
	c-1.846,0.356-3.646,0.844-5.391,1.448l-36.73-63.618C194.735,100.209,208.968,96.25,224,95.256z M205.629,177.69
	c-1.403,1.22-2.719,2.536-3.939,3.939l-63.618-36.73c8.177-12.164,18.663-22.65,30.827-30.827L205.629,177.69z M194.172,194.608
	c-0.605,1.746-1.092,3.545-1.448,5.392h-73.467c0.994-15.032,4.953-29.265,11.298-42.121L194.172,194.608z M119.256,215h73.467
	c0.356,1.846,0.844,3.646,1.448,5.391l-63.618,36.73C124.209,244.266,120.25,230.032,119.256,215z M201.69,233.371
	c1.22,1.404,2.536,2.719,3.939,3.939l-36.73,63.619c-12.164-8.177-22.65-18.664-30.827-30.827L201.69,233.371z M202.676,272.424
	l-12.775,39.602c-2.729-1.09-5.404-2.286-8.023-3.579L202.676,272.424z M224,255.18v64.565c-6.789-0.449-13.415-1.501-19.825-3.107
	L224,255.18z M231.5,383c4.687,0,8.5,3.813,8.5,8.5s-3.813,8.5-8.5,8.5s-8.5-3.813-8.5-8.5S226.813,383,231.5,383z M239,319.745
	V255.18l19.825,61.458C252.415,318.243,245.789,319.295,239,319.745z M260.324,272.424l20.798,36.022
	c-2.619,1.293-5.294,2.49-8.023,3.579L260.324,272.424z M257.371,237.31c1.403-1.22,2.719-2.536,3.939-3.939l63.619,36.73
	c-8.177,12.164-18.663,22.651-30.827,30.827L257.371,237.31z M268.828,220.391c0.605-1.746,1.092-3.545,1.448-5.391h73.468
	c-0.994,15.032-4.953,29.266-11.298,42.121L268.828,220.391z M415.5,216c-4.687,0-8.5-3.813-8.5-8.5s3.813-8.5,8.5-8.5
	s8.5,3.813,8.5,8.5S420.188,216,415.5,216z M398.21,111.25c2.343,4.059,0.947,9.268-3.111,11.612
	c-1.966,1.135-4.257,1.437-6.45,0.849c-2.193-0.587-4.026-1.994-5.161-3.96s-1.437-4.257-0.849-6.45
	c0.587-2.193,1.994-4.026,3.96-5.162C390.658,105.796,395.867,107.191,398.21,111.25z M372.299,101.064
	c-1.904,2.446-3.322,5.269-4.149,8.354c-0.954,3.561-1.054,7.214-0.343,10.725l-29.87,17.245
	c-9.53-14.419-21.906-26.795-36.325-36.325l17.243-29.865c1.515,0.307,3.057,0.464,4.607,0.464c2.041,0,4.096-0.269,6.121-0.811
	c3.085-0.827,5.908-2.245,8.354-4.149C350.937,76.54,362.462,88.066,372.299,101.064z M321.3,39.941
	c0.732-0.196,1.476-0.293,2.214-0.293c1.473,0,2.926,0.386,4.236,1.143c4.059,2.344,5.454,7.552,3.111,11.611c0,0,0,0,0,0
	c-1.135,1.966-2.968,3.373-5.161,3.96c-2.192,0.587-4.483,0.287-6.45-0.849c-1.966-1.135-3.373-2.968-3.96-5.162
	c-0.588-2.193-0.286-4.483,0.849-6.45C317.274,41.935,319.107,40.528,321.3,39.941z M231.5,15c4.687,0,8.5,3.813,8.5,8.5
	s-3.813,8.5-8.5,8.5s-8.5-3.813-8.5-8.5S226.813,15,231.5,15z M135.25,40.79c1.967-1.135,4.256-1.437,6.45-0.849
	c2.193,0.587,4.026,1.994,5.161,3.96s1.437,4.257,0.849,6.45c-0.587,2.193-1.994,4.026-3.96,5.162
	c-1.967,1.135-4.258,1.437-6.45,0.849c-2.193-0.587-4.026-1.994-5.162-3.96v0C129.795,48.343,131.191,43.134,135.25,40.79z
	 M125.064,66.702c2.446,1.904,5.269,3.323,8.354,4.149c2.024,0.542,4.079,0.811,6.121,0.811c1.55,0,3.092-0.157,4.607-0.464
	l17.243,29.865c-14.419,9.53-26.795,21.906-36.325,36.325l-29.87-17.245c0.711-3.511,0.611-7.164-0.343-10.725
	c-0.827-3.085-2.245-5.908-4.15-8.355C100.539,88.064,112.068,76.537,125.064,66.702z M64.79,111.25
	c1.573-2.724,4.436-4.248,7.376-4.248c1.441,0,2.9,0.366,4.235,1.137c1.966,1.135,3.373,2.968,3.96,5.162
	c0.588,2.193,0.286,4.483-0.849,6.45s-2.968,3.373-5.162,3.96c-2.192,0.588-4.483,0.286-6.45-0.849s-3.373-2.968-3.96-5.162
	C63.353,115.507,63.655,113.216,64.79,111.25z M47.5,199c4.687,0,8.5,3.813,8.5,8.5s-3.813,8.5-8.5,8.5s-8.5-3.813-8.5-8.5
	S42.813,199,47.5,199z M64.79,303.75c-1.135-1.966-1.437-4.257-0.849-6.45c0.587-2.193,1.994-4.026,3.96-5.161c0,0,0,0,0,0
	c1.31-0.756,2.763-1.143,4.236-1.143c0.738,0,1.481,0.097,2.213,0.293c2.193,0.587,4.026,1.994,5.162,3.96s1.437,4.257,0.849,6.45
	c-0.587,2.193-1.994,4.026-3.96,5.161C72.341,309.205,67.134,307.81,64.79,303.75z M90.702,313.936
	c1.904-2.446,3.322-5.269,4.149-8.354c0.954-3.561,1.054-7.215,0.343-10.725l29.87-17.245c9.53,14.419,21.906,26.795,36.325,36.325
	l-17.245,29.87c-3.511-0.711-7.164-0.612-10.725,0.343c-3.085,0.826-5.907,2.245-8.354,4.149
	C112.063,338.46,100.539,326.936,90.702,313.936z M135.25,374.21c-4.059-2.344-5.455-7.553-3.111-11.611
	c1.135-1.966,2.968-3.373,5.162-3.96c0.732-0.196,1.475-0.293,2.213-0.293c1.472,0,2.925,0.386,4.235,1.142l0.002,0.001
	c0.001,0,0.001,0.001,0.001,0.001c1.966,1.135,3.372,2.968,3.959,5.16c0.588,2.193,0.286,4.484-0.849,6.45
	C144.519,375.159,139.311,376.555,135.25,374.21z M162.781,370.115c0.433-3.083,0.248-6.25-0.582-9.348
	c-0.954-3.559-2.706-6.76-5.075-9.444l17.241-29.863c3.55,1.787,7.193,3.415,10.922,4.87l-15.075,46.733
	C167.716,372.138,165.239,371.155,162.781,370.115z M301.201,448H161.8l18.08-56.047c9.46,2.642,19.126,4.552,28.946,5.71
	C211.541,407.641,220.675,415,231.5,415c10.825,0,19.959-7.359,22.674-17.336c9.82-1.158,19.486-3.068,28.947-5.711L301.201,448z
	 M277.713,326.33c3.729-1.455,7.372-3.083,10.922-4.87l17.241,29.863c-2.369,2.684-4.121,5.885-5.075,9.444
	c-0.83,3.098-1.015,6.265-0.582,9.348c-2.458,1.04-4.935,2.024-7.431,2.949L277.713,326.33z M327.751,374.21
	c-4.06,2.342-9.269,0.947-11.612-3.111c-1.135-1.966-1.437-4.257-0.849-6.45c0.587-2.193,1.994-4.026,3.96-5.161
	c1.31-0.756,2.763-1.143,4.236-1.143c0.738,0,1.482,0.097,2.214,0.293c2.193,0.587,4.026,1.994,5.161,3.96
	C333.205,366.658,331.809,371.867,327.751,374.21z M337.936,348.299c-2.446-1.904-5.268-3.322-8.353-4.149
	c-3.561-0.954-7.214-1.054-10.725-0.343l-17.245-29.87c14.419-9.53,26.795-21.906,36.325-36.325l29.87,17.245
	c-0.711,3.511-0.611,7.164,0.343,10.725c0.826,3.085,2.245,5.907,4.149,8.353C362.461,326.936,350.937,338.46,337.936,348.299z
	 M398.21,303.75c-2.343,4.059-7.551,5.456-11.611,3.111h0c-1.966-1.135-3.373-2.968-3.96-5.161
	c-0.588-2.192-0.286-4.482,0.848-6.448c0,0,0.001-0.001,0.001-0.001c0,0,0.001-0.001,0.001-0.002
	c1.135-1.965,2.968-3.371,5.16-3.958c0.732-0.196,1.476-0.293,2.214-0.293c1.473,0,2.927,0.386,4.236,1.143
	C399.158,294.482,400.554,299.691,398.21,303.75z"/>
<g>
</g>
<g>
</g>
<g>
</g>
<g>
</g>
<g>
</g>
<g>
</g>
<g>
</g>
<g>
</g>
<g>
</g>
<g>
</g>
<g>
</g>
<g>
</g>
<g>
</g>
<g>
</g>
<g>
</g>
</svg>
