<?xml version="1.0" encoding="iso-8859-1"?>
<!-- Generator: Adobe Illustrator 19.0.0, SVG Export Plug-In . SVG Version: 6.00 Build 0)  -->
<svg version="1.1" id="Layer_1" xmlns="http://www.w3.org/2000/svg" xmlns:xlink="http://www.w3.org/1999/xlink" x="0px" y="0px"
	 viewBox="0 0 502 502" style="enable-background:new 0 0 502 502;" xml:space="preserve">
<g>
	<g>
		<g>
			<path d="M479.662,147.354c-14.316-31.532-34.658-59.339-60.458-82.648c-0.001-0.001-0.003-0.003-0.005-0.004
				c-0.003-0.003-0.006-0.005-0.009-0.008C373.006,22.975,313.276,0,251,0C188.979,0,129.428,22.815,83.317,64.244
				c-0.004,0.004-0.008,0.007-0.012,0.011c-0.017,0.015-0.033,0.031-0.05,0.046C30.345,111.869,0,179.913,0,251
				c0,71.115,30.368,139.185,83.317,186.756c0.001,0.001,0.002,0.001,0.002,0.002c0.014,0.013,0.029,0.025,0.043,0.037
				C129.467,479.199,188.999,502,251,502c62.25,0,121.956-22.957,168.132-64.642c0.008-0.007,0.016-0.014,0.025-0.022
				c0.016-0.014,0.032-0.028,0.047-0.042c25.8-23.31,46.142-51.117,60.458-82.648C494.484,322,502,287.129,502,251
				C502,214.871,494.484,180,479.662,147.354z M412.486,416.135c-0.085-0.084-0.174-0.166-0.26-0.25
				c-3.941-3.869-10.272-3.809-14.142,0.133c-3.658,3.728-3.798,9.589-0.469,13.486C356.356,463.433,304.707,482,251,482
				c-53.448,0-104.901-18.412-146.071-52.057c3.297-3.889,3.157-9.718-0.475-13.441c-3.858-3.953-10.189-4.031-14.141-0.173
				c-0.098,0.096-0.201,0.19-0.299,0.286C45.418,373.229,20,313.394,20,251S45.418,128.771,90.013,85.385
				c0.099,0.096,0.201,0.19,0.299,0.286c1.944,1.897,4.465,2.843,6.983,2.843c2.601,0,5.199-1.008,7.158-3.016
				c3.632-3.722,3.773-9.552,0.475-13.441C146.099,38.412,197.552,20,251,20c53.707,0,105.356,18.567,146.615,52.495
				c-3.329,3.898-3.188,9.759,0.469,13.486c1.958,1.996,4.547,2.996,7.139,2.996c2.527,0,5.057-0.953,7.003-2.863
				c0.085-0.084,0.174-0.166,0.26-0.25C456.764,129.205,482,188.863,482,251S456.764,372.795,412.486,416.135z"/>
			<path d="M337.57,299.012c5.454-0.867,9.173-5.992,8.306-11.446c-0.957-6.016-1.684-12.152-2.16-18.237
				c-0.432-5.506-5.236-9.62-10.751-9.188c-5.506,0.432-9.62,5.245-9.188,10.75c0.519,6.611,1.309,13.278,2.348,19.815
				c0.783,4.923,5.032,8.431,9.863,8.431C336.51,299.138,337.039,299.097,337.57,299.012z"/>
			<path d="M332.966,241.796c0.268,0.021,0.532,0.031,0.796,0.031c5.167,0,9.546-3.977,9.958-9.216
				c0.479-6.086,1.208-12.219,2.165-18.228c0.868-5.454-2.85-10.58-8.304-11.448c-5.44-0.865-10.579,2.849-11.448,8.303
				c-1.039,6.529-1.83,13.192-2.351,19.803C323.349,236.547,327.46,241.362,332.966,241.796z"/>
			<path d="M341.9,185.117c1.038,0.341,2.092,0.504,3.128,0.504c4.201,0,8.112-2.669,9.497-6.877
				c1.903-5.785,4.066-11.568,6.43-17.187c2.141-5.091-0.252-10.954-5.343-13.094c-5.089-2.139-10.954,0.25-13.095,5.342
				c-2.568,6.109-4.92,12.396-6.99,18.688C333.801,177.738,336.654,183.39,341.9,185.117z"/>
			<path d="M377.801,372.982c-2.922-4.688-9.088-6.12-13.776-3.198c-4.688,2.921-6.119,9.088-3.198,13.776
				c3.501,5.616,7.273,11.167,11.213,16.496c1.961,2.653,4.985,4.056,8.049,4.056c2.065,0,4.148-0.637,5.937-1.959
				c4.441-3.283,5.38-9.545,2.097-13.986C384.494,383.26,381.022,378.152,377.801,372.982z"/>
			<path d="M360.938,340.405c-2.36-5.615-4.522-11.399-6.427-17.19c-1.727-5.248-7.379-8.102-12.624-6.376
				c-5.246,1.725-8.101,7.376-6.376,12.623c2.071,6.298,4.423,12.587,6.989,18.693c1.608,3.826,5.317,6.127,9.223,6.127
				c1.292,0,2.605-0.252,3.871-0.784C360.687,351.359,363.078,345.497,360.938,340.405z"/>
			<path d="M386.05,99.818c-4.438-3.283-10.702-2.347-13.986,2.094c-3.938,5.326-7.712,10.875-11.214,16.494
				c-2.922,4.687-1.49,10.854,3.196,13.776c1.646,1.026,3.475,1.515,5.28,1.515c3.338,0,6.601-1.671,8.496-4.712
				c3.224-5.171,6.695-10.278,10.321-15.18C391.428,109.365,390.49,103.103,386.05,99.818z"/>
			<path d="M124.959,128.64c1.898,3.032,5.154,4.696,8.486,4.696c1.813,0,3.647-0.493,5.296-1.525
				c4.681-2.93,6.101-9.101,3.171-13.782c-3.523-5.628-7.32-11.189-11.285-16.529c-3.293-4.434-9.556-5.359-13.99-2.066
				c-4.434,3.293-5.359,9.557-2.066,13.99C118.221,118.34,121.716,123.459,124.959,128.64z"/>
			<path d="M141.935,161.301c2.379,5.638,4.557,11.439,6.472,17.243c1.388,4.204,5.296,6.868,9.495,6.868
				c1.039,0,2.096-0.164,3.136-0.507c5.245-1.731,8.092-7.386,6.361-12.631c-2.083-6.311-4.451-12.618-7.038-18.749
				c-2.147-5.088-8.011-7.473-13.101-5.326C142.172,150.347,139.788,156.212,141.935,161.301z"/>
			<path d="M138.721,370.223c-4.681-2.933-10.852-1.512-13.782,3.169c-3.244,5.181-6.74,10.299-10.39,15.212
				c-3.294,4.433-2.37,10.697,2.063,13.991c1.792,1.332,3.883,1.974,5.956,1.974c3.056,0,6.073-1.396,8.035-4.037
				c3.966-5.337,7.764-10.898,11.288-16.527C144.821,379.325,143.402,373.154,138.721,370.223z"/>
			<path d="M176.853,211.156c-0.871-5.453-6-9.168-11.452-8.298c-5.454,0.871-9.169,5.998-8.298,11.451
				c0.963,6.034,1.695,12.19,2.176,18.299c0.413,5.239,4.792,9.216,9.958,9.216c0.263,0,0.529-0.01,0.795-0.031
				c5.506-0.434,9.618-5.248,9.185-10.754C178.695,224.402,177.899,217.712,176.853,211.156z"/>
			<path d="M161.027,317.14c-5.244-1.733-10.9,1.114-12.633,6.358c-1.918,5.805-4.097,11.605-6.475,17.239
				c-2.147,5.088,0.236,10.954,5.324,13.102c1.27,0.536,2.587,0.79,3.884,0.79c3.899,0,7.605-2.295,9.217-6.114
				c2.585-6.125,4.954-12.431,7.039-18.742C169.117,324.529,166.271,318.873,161.027,317.14z"/>
			<path d="M170.031,260.271c-5.506-0.442-10.322,3.675-10.757,9.181c-0.483,6.108-1.216,12.262-2.18,18.292
				c-0.872,5.454,2.843,10.581,8.296,11.452c0.535,0.085,1.066,0.127,1.59,0.127c4.827,0,9.077-3.504,9.862-8.424
				c1.047-6.551,1.844-13.236,2.368-19.871C179.647,265.522,175.537,260.706,170.031,260.271z"/>
		</g>
	</g>
</g>
<g>
</g>
<g>
</g>
<g>
</g>
<g>
</g>
<g>
</g>
<g>
</g>
<g>
</g>
<g>
</g>
<g>
</g>
<g>
</g>
<g>
</g>
<g>
</g>
<g>
</g>
<g>
</g>
<g>
</g>
</svg>
