<?xml version="1.0" encoding="iso-8859-1"?>
<!-- Generator: Adobe Illustrator 19.0.0, SVG Export Plug-In . SVG Version: 6.00 Build 0)  -->
<svg version="1.1" id="Layer_1" xmlns="http://www.w3.org/2000/svg" xmlns:xlink="http://www.w3.org/1999/xlink" x="0px" y="0px"
	 viewBox="0 0 511.986 511.986" style="enable-background:new 0 0 511.986 511.986;" xml:space="preserve">
<g>
	<g>
		<path d="M495.547,33.031c-12.25-8.891-30.28-13.999-49.451-13.999c-19.5,0-36.562,5.421-47.343,14.952
			c-0.343,0.266-0.655,0.531-0.968,0.844L297.271,135.356l-22.624-22.624c-4.171-4.172-10.929-4.172-15.093,0L10.671,361.614
			c-4.163,4.156-4.163,10.922,0,15.078l7.539,7.545L3.125,399.315c-2,2-3.125,4.719-3.125,7.547s1.125,5.547,3.125,7.547
			l75.419,75.42c2.086,2.078,4.812,3.125,7.547,3.125c2.727,0,5.461-1.047,7.539-3.125l15.085-15.094l7.539,7.547
			c2,2,4.719,3.125,7.547,3.125c1.047,0,2.078-0.156,3.07-0.453c0,0,0.023,0,0.031-0.016c1.211-0.359,23.022-7.031,53.865-22.656
			c28.593-14.5,70.709-39.795,108.957-78.045c38.328-38.342,61.608-78.496,74.389-105.434
			c13.938-29.389,18.766-49.669,18.953-50.528c0.172-0.781,0.281-1.594,0.281-2.422c0-2.828-1.125-5.547-3.125-7.547l-37.702-37.702
			l28.405-28.421c4.672,5.797,11.656,12.703,21.359,20.078c9.593,7.312,28.529,19.843,47.436,21.64
			c1.484,0.141,2.953,0.219,4.391,0.219c16.906,0,30.577-9.812,35.701-25.593c5.422-16.719-0.375-34.812-14.421-44.999
			c-12.265-8.89-30.296-13.983-49.468-13.983c-19.498,0-36.561,5.422-47.342,14.937c-0.328,0.266-0.656,0.547-0.969,0.844
			l-40.186,40.187l-15.078-15.078l88.747-88.747c4.672,5.781,11.641,12.688,21.343,20.078c9.609,7.312,28.547,19.827,47.452,21.64
			c1.469,0.141,2.953,0.203,4.391,0.203c16.89,0,30.577-9.797,35.687-25.593C515.406,61.296,509.609,43.219,495.547,33.031z
			 M415.924,130.872c14.344,0,28.5,3.797,36.938,9.922c7.562,5.484,8.78,14.577,6.656,21.155
			c-1.312,4.047-5.062,10.844-15.406,10.844c-0.766,0-1.562-0.047-2.359-0.125c-9.953-0.953-23.266-7.266-36.515-17.344
			c-9.046-6.874-15.374-13.499-18.64-17.702C393.676,133.341,404.159,130.872,415.924,130.872z M267.094,135.356l15.085,15.077
			l-16.827,16.828c-5.32-4.219-10.773-8.828-16.336-13.828L267.094,135.356z M33.296,399.315l7.538,7.547
			c-4.163,4.172-4.163,10.922,0,15.078c2.086,2.094,4.812,3.125,7.547,3.125c2.727,0,5.461-1.031,7.539-3.125l15.085,15.094
			c-4.163,4.156-4.163,10.904,0,15.076l-45.256-45.248L33.296,399.315z M86.091,467.204L71.005,452.11
			c2.086,2.094,4.812,3.125,7.539,3.125c2.734,0,5.461-1.047,7.547-3.125l7.539,7.547L86.091,467.204z M274.647,369.161
			c-36.116,36.092-75.967,60.076-103.044,73.842c-0.672,0.344-1.328,0.672-1.984,1l29.593-29.594c0.008,0,0.008,0,0.008,0
			l35.194-35.201l111.138-111.139C332.443,296.054,310.303,333.489,274.647,369.161z M176.596,376.692l90.498-90.498l15.085,15.078
			l-90.505,90.512L176.596,376.692z M349.692,233.774l-52.421,52.419l-22.624-22.625c-4.171-4.172-10.929-4.172-15.093,0
			l-105.59,105.593c-4.164,4.156-4.164,10.906,0,15.076l22.632,22.625l-52.795,52.795l-30.163-30.154c0-0.016,0-0.016-0.008-0.016
			c0,0-0.008,0-0.008-0.016l-60.326-60.326l200.61-200.603C283.085,213.009,325.021,228.446,349.692,233.774z M327.427,195.682
			l13.843,13.844c-5.968-1.859-12.687-4.344-20.062-7.625L327.427,195.682z M312.349,180.604l-11.141,11.125
			c-5.906-3.375-12.093-7.234-18.515-11.641l14.577-14.577L312.349,180.604z M489.687,71.436
			c-1.312,4.047-5.062,10.844-15.405,10.844c-0.766,0-1.562-0.031-2.359-0.109c-9.953-0.953-23.265-7.281-36.515-17.344
			c-9.047-6.891-15.391-13.515-18.656-17.702c7.094-4.297,17.578-6.75,29.344-6.75c14.344,0,28.499,3.797,36.936,9.922
			C490.594,55.78,491.812,64.858,489.687,71.436z"/>
	</g>
</g>
<g>
</g>
<g>
</g>
<g>
</g>
<g>
</g>
<g>
</g>
<g>
</g>
<g>
</g>
<g>
</g>
<g>
</g>
<g>
</g>
<g>
</g>
<g>
</g>
<g>
</g>
<g>
</g>
<g>
</g>
</svg>
