<?xml version="1.0" encoding="utf-8"?>
<!-- Generator: Adobe Illustrator 19.0.0, SVG Export Plug-In . SVG Version: 6.00 Build 0)  -->
<svg version="1.1" id="Layer_1" xmlns="http://www.w3.org/2000/svg" xmlns:xlink="http://www.w3.org/1999/xlink" x="0px" y="0px"
	 width="931.2px" height="1053.1px" viewBox="366 627 931.2 1053.1" style="enable-background:new 366 627 931.2 1053.1;"
	 xml:space="preserve">
<style type="text/css">
	.st0{opacity:0.2;}
	.st1{fill:none;stroke:#009ADA;stroke-width:3;stroke-linecap:round;stroke-linejoin:round;stroke-miterlimit:10;}
	.st2{fill:none;stroke:#009ADA;stroke-linecap:round;stroke-linejoin:round;stroke-miterlimit:10;}
	.st3{opacity:0.8;fill:#0097D8;stroke:#5CB8E6;stroke-miterlimit:10;enable-background:new    ;}
	.st4{fill:#FDE82A;stroke:#0098D8;stroke-miterlimit:10;}
	.st5{fill:#FFFFFF;}
	.st6{font-family:'AppleSDGothicNeo-Light-KSCpc-EUC-H';}
	.st7{font-size:7px;}
	.st8{fill:#0071B7;}
	.st9{font-family:'AppleSDGothicNeo-Bold-KSCpc-EUC-H';}
	.st10{font-size:9px;}
	.st11{fill:#FFF154;stroke:#0098D8;stroke-linecap:square;stroke-linejoin:round;stroke-miterlimit:10;}
	.st12{fill:#FFF154;stroke:#0098D8;stroke-miterlimit:10;}
	.st13{fill:#FFF154;stroke:#0098D8;stroke-width:2;stroke-linecap:square;stroke-linejoin:round;stroke-miterlimit:10;}
	.st14{font-family:'AppleSDGothicNeo-Medium-KSCpc-EUC-H';}
	.st15{font-size:9.0233px;}
</style>
<g id="길_x5F_독립운동">
	<g class="st0">
		<polyline class="st1" points="828.7,1165.2 823.5,1163.7 834.9,1131.3 819.6,1129.2 825.4,1103.2 844.2,1108.8 860.9,1111.8 
			862.5,1105.7 885.1,1104.5 920.9,1108.8 932.5,1102 928.6,1092.7 937,1079.2 930.5,1066 906.6,1065.3 905.1,1034.4 902.2,1064.7 
			891.7,1064.6 874.4,1060.1 843.9,1170 830.1,1165.6 825.4,1179.2 838,1183.1 814,1270.3 799.7,1280.4 746.3,1321.8 739.9,1318.3 
			710.9,1293.8 738.2,1320.2 746.3,1323.9 749.7,1320.3 751.2,1337.9 758.4,1343.7 785.1,1314.1 824.6,1333.9 839,1297.6 
			847.3,1283.7 891.8,1303 902.3,1314.4 890.7,1326.5 905.5,1314.1 891.7,1300.5 899.5,1292.3 857.9,1267 861.6,1259.4 		"/>
	</g>
	<g>
		<polyline class="st2" points="828.7,1165.2 823.5,1163.7 834.9,1131.3 819.6,1129.2 825.4,1103.2 840.4,1107 860.9,1111.8 
			862.5,1105.7 885.1,1104.5 920.9,1108.8 932.5,1102 928.6,1092.7 937,1079.2 930.5,1066 906.6,1065.3 905.1,1034.4 902.2,1064.7 
			891.7,1064.6 874.4,1060.1 843.9,1170 830.1,1165.6 825.4,1179.2 838,1183.1 814,1270.3 799.7,1280.4 746.3,1321.8 739.9,1318.3 
			710.9,1293.8 738.2,1320.2 746.3,1323.9 749.7,1320.3 751.2,1337.9 758.4,1343.7 785.1,1314.1 824.6,1333.9 839,1297.6 
			847.3,1283.7 891.8,1303 902.3,1314.4 890.7,1326.5 905.5,1314.1 891.7,1300.5 899.5,1292.3 857.9,1267 861.6,1259.4 		"/>
	</g>
</g>
<polygon class="st3" points="944,1031.6 932.7,1033.7 909.7,1031.6 908,1023.8 909.7,1018.4 921.1,1017.2 944,1018.4 946.6,1022.5 
	"/>
<polyline class="st4" points="903,1038.8 903,1033.9 903,1028.9 908.1,1031.9 903.3,1033.7 "/>
<g>
	<text transform="matrix(1 0 0 1 911.0255 1027.7852)" class="st5 st6 st7">강화문학관</text>
</g>
<polygon class="st3" points="964,1076.1 950.1,1078.2 922.1,1076.1 919.9,1068.3 922.1,1062.9 935.9,1061.7 964,1062.9 967.1,1067 
	"/>
<polyline class="st4" points="912.6,1073.2 912.6,1068.2 912.6,1063.3 917.7,1066.3 912.9,1068.1 "/>
<g>
	<text transform="matrix(1 0 0 1 923.955 1072.2814)" class="st5 st6 st7">3·1운동기념비</text>
</g>
<polygon class="st3" points="878,1125.5 872,1127.3 860,1125.5 859.1,1118.5 860,1113.7 866,1112.7 878,1113.7 879.3,1117.4 "/>
<g>
	<text transform="matrix(1 0 0 1 863.4548 1122.4292)" class="st5 st6 st7">쉼터</text>
</g>
<polygon class="st3" points="985.5,1090.9 969.1,1093 936.2,1090.9 933.6,1083.1 936.2,1077.7 952.5,1076.5 985.5,1077.7 
	989.2,1081.8 "/>
<polyline class="st4" points="926.3,1088 926.3,1083.1 926.3,1078.1 931.4,1081.1 926.6,1082.9 "/>
<polyline class="st4" points="867.5,1101.7 867.5,1096.8 867.5,1091.8 872.6,1094.8 867.8,1096.6 "/>
<polyline class="st4" points="852.4,1120.9 852.4,1116 852.4,1111 857.5,1114 852.6,1115.8 "/>
<polygon class="st3" points="815.6,1165.4 805.2,1167.2 784.2,1165.4 782.5,1158.4 784.2,1153.6 794.6,1152.6 815.6,1153.6 
	818,1157.3 "/>
<g>
	<text transform="matrix(1 0 0 1 786.0886 1162.3296)" class="st5 st6 st7">7080골목</text>
</g>
<polyline class="st4" points="818.6,1160.2 818.6,1155.2 818.6,1150.2 823.7,1153.2 818.9,1155 "/>
<polygon class="st3" points="812.3,1241.4 801,1243.2 778.1,1241.4 776.3,1234.4 778.1,1229.6 789.4,1228.6 812.3,1229.6 
	814.9,1233.3 "/>
<g>
	<text transform="matrix(1 0 0 1 780.0701 1238.3413)" class="st5 st6 st7">토이시어터</text>
</g>
<polyline class="st4" points="818.2,1240.8 818.2,1235.9 818.2,1230.9 823.3,1233.9 818.4,1235.7 "/>
<polygon class="st3" points="775.5,1287.6 765.8,1289.5 746.3,1287.6 744.8,1280.7 746.3,1275.9 756,1274.8 775.5,1275.9 
	777.6,1279.5 "/>
<g>
	<text transform="matrix(1 0 0 1 748.7959 1284.5703)" class="st5 st6 st7">버드카페</text>
</g>
<polyline class="st4" points="780.9,1287.1 780.9,1282.1 780.9,1277.1 786,1280.1 781.2,1281.9 "/>
<polyline class="st4" points="776.2,1303 776.2,1298 776.2,1293.1 781.3,1296.1 776.5,1297.9 "/>
<polygon class="st3" points="704.8,1292.2 695.6,1294.1 676.9,1292.2 675.5,1285.3 676.9,1280.5 686.1,1279.4 704.8,1280.5 
	706.9,1284.1 "/>
<g>
	<text transform="matrix(1 0 0 1 678.0666 1289.1859)" class="st5 st6 st7">중앙교회</text>
</g>
<polyline class="st4" points="710.2,1291.7 710.2,1286.7 710.2,1281.8 715.3,1284.8 710.4,1286.5 "/>
<polygon class="st3" points="761.9,1339.7 749.7,1341.6 725.1,1339.7 723.2,1332.8 725.1,1328 737.3,1326.9 761.9,1328 
	764.7,1331.6 "/>
<g>
	<text transform="matrix(1 0 0 1 726.609 1336.6843)" class="st5 st6 st7">합일초교 담</text>
</g>
<polyline class="st4" points="767.9,1339.2 767.9,1334.2 767.9,1329.3 773.1,1332.3 768.2,1334 "/>
<polygon class="st3" points="845.8,1316.3 836.5,1318.2 817.9,1316.3 816.4,1309.4 817.9,1304.6 827.1,1303.5 845.8,1304.6 
	847.9,1308.2 "/>
<g>
	<text transform="matrix(1 0 0 1 819.0357 1313.2755)" class="st5 st6 st7">구세의원</text>
</g>
<polyline class="st4" points="841.5,1303.2 841.5,1298.2 841.5,1293.3 846.6,1296.3 841.8,1298.1 "/>
<polygon class="st3" points="921.9,1332.8 912.7,1334.6 894,1332.8 892.6,1325.8 894,1321 903.2,1320 921.9,1321 924,1324.7 "/>
<g>
	<text transform="matrix(1 0 0 1 895.1479 1329.7452)" class="st5 st6 st7">김구고택</text>
</g>
<polyline class="st4" points="891.3,1322.3 891.3,1317.3 891.3,1312.4 896.5,1315.4 891.6,1317.2 "/>
<polyline class="st4" points="817.8,1117.6 817.8,1112.7 817.8,1107.7 822.9,1110.7 818,1112.5 "/>
<g>
	<text transform="matrix(1 0 0 1 939.0162 1087.1063)" class="st5 st6 st7">성공회 강화성당</text>
</g>
<polygon class="st3" points="862.5,1101.6 848.9,1103.7 821.4,1101.6 819.3,1093.8 821.4,1088.4 835,1087.2 862.5,1088.4 
	865.5,1092.5 "/>
<g>
	<text transform="matrix(1 0 0 1 822.7083 1097.7794)" class="st5 st6 st7">김상용순절비</text>
</g>
<polygon class="st3" points="813.5,1129.2 799.9,1131.3 772.5,1129.2 770.3,1121.4 772.5,1116 786.1,1114.8 813.5,1116 
	816.6,1120.1 "/>
<g>
	<text transform="matrix(1 0 0 1 774.7747 1125.3982)" class="st5 st6 st7">조봉암표지석</text>
</g>
<g>
	<g>
		<path class="st8" d="M971.6,1034.1h-42.5c-4.3,0-7.8,3.5-7.8,7.8l0,0c0,0.3,0,0.5,0,0.8c-2.5,1.4-6.9,4.1-6.9,4.1h8.6
			c1.4,1.8,3.6,2.9,6.1,2.9h42.5c4.3,0,7.8-3.5,7.8-7.8l0,0C979.4,1037.6,975.9,1034.1,971.6,1034.1z"/>
	</g>
	<text transform="matrix(1 0 0 1 927.8137 1045.4729)" class="st5 st9 st10">독립운동코스</text>
</g>
<polyline class="st11" points="828.6,1163.9 828.6,1154.8 828.6,1145.8 838,1151.3 829.1,1154.5 "/>
<rect x="826.2" y="1162.5" class="st12" width="4.3" height="4.4"/>
<polyline class="st11" points="862.2,1258.2 862.2,1249.1 862.2,1240.1 871.6,1245.6 862.7,1248.8 "/>
<rect x="859.9" y="1256.8" class="st12" width="4.3" height="4.4"/>
<g>
	<path class="st13" d="M815.2,1183.3h-18c-3.9,0-7.1-3.2-7.1-7.1l0,0c0-3.9,3.2-7.1,7.1-7.1h18c3.9,0,7.1,3.2,7.1,7.1l0,0
		C822.3,1180.1,819.1,1183.3,815.2,1183.3z"/>
	<text transform="matrix(1 0 0 1 794.0831 1179.2998)" class="st14 st15">출발점</text>
</g>
<g>
	<path class="st13" d="M894.2,1266.3h-18c-3.9,0-7.1-3.2-7.1-7.1l0,0c0-3.9,3.2-7.1,7.1-7.1h18c3.9,0,7.1,3.2,7.1,7.1l0,0
		C901.3,1263.1,898.1,1266.3,894.2,1266.3z"/>
	<text transform="matrix(1 0 0 1 873.0831 1262.2997)" class="st14 st15">도착점</text>
</g>
</svg>
