<?xml version="1.0" encoding="utf-8"?>
<!-- Generator: Adobe Illustrator 19.0.0, SVG Export Plug-In . SVG Version: 6.00 Build 0)  -->
<svg version="1.1" id="Layer_1" xmlns="http://www.w3.org/2000/svg" xmlns:xlink="http://www.w3.org/1999/xlink" x="0px" y="0px"
	 width="931.2px" height="1053.1px" viewBox="366 627 931.2 1053.1" style="enable-background:new 366 627 931.2 1053.1;"
	 xml:space="preserve">
<style type="text/css">
	.st0{opacity:0.2;}
	.st1{fill:none;stroke:#EE5D73;stroke-width:3;stroke-linecap:round;stroke-linejoin:round;stroke-miterlimit:10;}
	.st2{fill:none;stroke:#EE5D73;stroke-linecap:round;stroke-linejoin:round;stroke-miterlimit:10;}
	.st3{fill:#EB1B65;}
	.st4{fill:#FFFFFF;}
	.st5{font-family:'AppleSDGothicNeo-Bold-KSCpc-EUC-H';}
	.st6{font-size:10px;}
	.st7{opacity:0.8;fill:#EE5D73;stroke:#F8B9AF;stroke-miterlimit:10;enable-background:new    ;}
	.st8{fill:#FFF154;stroke:#EE5D73;stroke-linecap:square;stroke-linejoin:round;stroke-miterlimit:10;}
	.st9{font-family:'AppleSDGothicNeo-Light-KSCpc-EUC-H';}
	.st10{font-size:7px;}
	.st11{fill:#FFF154;stroke:#EE5D73;stroke-miterlimit:10;}
	.st12{fill:#FFF154;stroke:#EE5D73;stroke-width:2;stroke-linecap:square;stroke-linejoin:round;stroke-miterlimit:10;}
	.st13{font-family:'AppleSDGothicNeo-Medium-KSCpc-EUC-H';}
	.st14{font-size:9.0233px;}
</style>
<g id="길_x5F_종교">
	<g class="st0">
		<path class="st1" d="M882.5,963.5L861.2,948c0,0-8.7-9.1-11.8-11l-5.4,3.4l5.4,10.7c0,0-0.5,18.3,0,19.9s4.1,9.7,8.8,11.8
			c0,0-10.7,27.1-11.1,32.9c0,0-9.8-5.7-22.5-6.9c0,0-4,18-2.2,20.3c1.8,2.3,1.2,2.2,1.2,5.5c0.1,3.3,1.1,5.5,4.1,7.8l-4.9,5
			l52.2,12.9l-19.9,72.4l-12,37.2l-13-4.1l-4.7,13.6l12.6,3.9l-21.9,82.3l-15.8,13l-50.2,38.3l-39.7-25.2l36.8,27.5
			c0,0,3.5,1.6,4,1.6s0.5,15.4,0.5,15.4l7.8,6.4c0,0,18.1-18.2,23.9-25.7l2.1-4.3l39.9,20c0,0,16-42.2,22-49.4l5,1.8l9.5-26.3"/>
		<path class="st1" d="M827.9,1164.2l-5.2-2l16.1-40.7l18.1,4.4l-1.7,10.2l45.5,8.5l8.5-12.1l-1.9-25.5c0,0,8.7,2.7,14.2,1.5l6-3.2
			l31.7-31.1l-19.2-5.5l7-35.7h-14.3l-31.5-12l-17.2,4.9l-1.4-60.9"/>
	</g>
	<g>
		<path class="st2" d="M882.5,963.5L861.2,948c0,0-8.7-9.1-11.8-11l-5.4,3.4l5.4,10.7c0,0-0.5,18.3,0,19.9s4.1,9.7,8.8,11.8
			c0,0-10.7,27.1-11.1,32.9c0,0-9.8-5.7-22.5-6.9c0,0-4,18-2.2,20.3c1.8,2.3,1.2,2.2,1.2,5.5c0.1,3.3,1.1,5.5,4.1,7.8l-4.9,5
			l52.2,12.9l-19.9,72.4l-12,37.2l-13-4.1l-4.7,13.6l12.6,3.9l-21.9,82.3l-15.8,13l-50.2,38.3l-39.7-25.2l36.8,27.5
			c0,0,3.5,1.6,4,1.6s0.5,15.4,0.5,15.4l7.8,6.4c0,0,18.1-18.2,23.9-25.7l2.1-4.3l39.9,20c0,0,16-42.2,22-49.4l5,1.8l9.5-26.3"/>
		<path class="st2" d="M827.9,1164.2l-5.2-2l16.1-40.7l18.1,4.4l-1.7,10.2l45.5,8.5l8.5-12.1l-1.9-25.5c0,0,8.7,2.7,14.2,1.5l6-3.2
			l31.7-31.1l-19.2-5.5l7-35.7h-14.3l-31.5-12l-17.2,4.9l-1.4-60.9"/>
	</g>
</g>
<g>
	<g>
		<path class="st3" d="M929.4,947.2h-33.1c-4.3,0-7.8,3.5-7.8,7.8c0,1,0.2,1.9,0.5,2.8l-3,6.1l4.9-3.2c1.4,1.3,3.3,2.1,5.3,2.1h33.1
			c4.3,0,7.8-3.5,7.8-7.8C937.1,950.7,933.6,947.2,929.4,947.2z"/>
	</g>
	<text transform="matrix(1 0 0 1 895.7551 958.6117)" class="st4 st5 st6">종교코스</text>
</g>
<polygon class="st7" points="908.6,944.4 899.4,946.5 880.9,944.4 879.4,936.6 880.9,931.2 890,930 908.6,931.2 910.6,935.3 "/>
<polyline class="st8" points="878.8,955.6 878.8,950.7 878.8,945.7 884,948.7 879.1,950.5 "/>
<g>
	<text transform="matrix(1 0 0 1 883.06 940.5884)" class="st4 st9 st10">고려궁지</text>
</g>
<polygon class="st7" points="859.3,931.6 850.1,933.7 831.6,931.6 830.1,923.8 831.6,918.5 840.7,917.3 859.3,918.5 861.4,922.5 "/>
<polyline class="st8" points="851,946.9 851,941.9 851,937 856.2,940 851.3,941.8 "/>
<g>
	<text transform="matrix(1 0 0 1 832.7915 927.8492)" class="st4 st9 st10">은행나무</text>
</g>
<polygon class="st7" points="848.2,1115.3 839,1117.4 820.5,1115.3 819,1107.5 820.5,1102.1 829.6,1100.9 848.2,1102.1 
	850.2,1106.2 "/>
<polyline class="st8" points="839.9,1128.5 839.9,1123.5 839.9,1118.6 845.1,1121.6 840.2,1123.4 "/>
<polyline class="st8" points="816.5,1240.8 816.5,1235.9 816.5,1230.9 821.6,1233.9 816.7,1235.7 "/>
<g>
	<text transform="matrix(1 0 0 1 822.6643 1111.4823)" class="st4 st9 st10">진무영로</text>
</g>
<polyline class="st8" points="779.1,1287.5 779.1,1282.6 779.1,1277.6 784.2,1280.6 779.4,1282.4 "/>
<polyline class="st8" points="707.6,1291.8 707.6,1286.8 707.6,1281.9 712.7,1284.9 707.9,1286.6 "/>
<polyline class="st8" points="766.2,1341.4 766.2,1336.4 766.2,1331.5 771.3,1334.5 766.5,1336.2 "/>
<polyline class="st8" points="839.4,1304.7 839.4,1299.7 839.4,1294.8 844.5,1297.8 839.6,1299.5 "/>
<polygon class="st7" points="818.5,1022.9 810.4,1025 794.2,1022.9 792.9,1015.1 794.2,1009.7 802.2,1008.5 818.5,1009.7 
	820.3,1013.8 "/>
<polyline class="st8" points="825.9,1022.3 825.9,1017.3 825.9,1012.4 831.1,1015.4 826.2,1017.1 "/>
<g>
	<text transform="matrix(1 0 0 1 797.5802 1019.0848)" class="st4 st9 st10">형방터</text>
</g>
<polygon class="st7" points="821,1046.7 812.9,1048.9 796.7,1046.7 795.4,1038.9 796.7,1033.6 804.7,1032.4 821,1033.6 
	822.8,1037.7 "/>
<polyline class="st8" points="828.4,1046.2 828.4,1041.2 828.4,1036.2 833.5,1039.2 828.7,1041 "/>
<polyline class="st8" points="868.9,1101.3 868.9,1096.3 868.9,1091.3 874.1,1094.3 869.2,1096.1 "/>
<g>
	<text transform="matrix(1 0 0 1 803.3542 1042.9592)" class="st4 st9 st10">??터</text>
</g>
<polyline class="st8" points="863.6,1002.7 863.6,997.7 863.6,992.8 868.8,995.8 863.9,997.6 "/>
<polyline class="st8" points="827.9,1161.2 827.9,1152.1 827.9,1143.1 837.3,1148.6 828.4,1151.8 "/>
<polyline class="st8" points="862.2,1258.9 862.2,1249.8 862.2,1240.8 871.6,1246.3 862.7,1249.5 "/>
<rect x="825.9" y="1161.5" class="st11" width="4.3" height="4.4"/>
<rect x="859.6" y="1256.8" class="st11" width="4.3" height="4.4"/>
<g>
	<path class="st12" d="M814.9,1175.6h-18c-3.9,0-7.1-3.2-7.1-7.1l0,0c0-3.9,3.2-7.1,7.1-7.1h18c3.9,0,7.1,3.2,7.1,7.1l0,0
		C822,1172.4,818.8,1175.6,814.9,1175.6z"/>
	<text transform="matrix(1 0 0 1 793.7498 1171.6331)" class="st13 st14">출발점</text>
</g>
<g>
	<path class="st12" d="M893.2,1264.3h-18c-3.9,0-7.1-3.2-7.1-7.1l0,0c0-3.9,3.2-7.1,7.1-7.1h18c3.9,0,7.1,3.2,7.1,7.1l0,0
		C900.3,1261.1,897.1,1264.3,893.2,1264.3z"/>
	<text transform="matrix(1 0 0 1 872.0831 1260.2997)" class="st13 st14">도착점</text>
</g>
</svg>
