<?xml version="1.0" encoding="utf-8"?>
<!-- Generator: Adobe Illustrator 19.0.0, SVG Export Plug-In . SVG Version: 6.00 Build 0)  -->
<svg version="1.1" id="Layer_1" xmlns="http://www.w3.org/2000/svg" xmlns:xlink="http://www.w3.org/1999/xlink" x="0px" y="0px"
	 width="931.2px" height="1053.1px" viewBox="366 627 931.2 1053.1" style="enable-background:new 366 627 931.2 1053.1;"
	 xml:space="preserve">
<style type="text/css">
	.st0{opacity:0.2;}
	.st1{fill:none;stroke:#6CBF7A;stroke-width:3;stroke-linecap:round;stroke-linejoin:round;stroke-miterlimit:10;}
	.st2{fill:none;stroke:#00AE53;stroke-linecap:round;stroke-linejoin:round;stroke-miterlimit:10;}
	.st3{opacity:0.8;fill:#00AD51;stroke:#83C9A6;stroke-miterlimit:10;enable-background:new    ;}
	.st4{fill:#00A566;}
	.st5{fill:#FFFFFF;}
	.st6{font-family:'AppleSDGothicNeo-Bold-KSCpc-EUC-H';}
	.st7{font-size:9px;}
	.st8{enable-background:new    ;}
	.st9{font-family:'AppleSDGothicNeo-Light-KSCpc-EUC-H';}
	.st10{font-size:7px;}
	.st11{fill:#FFF7A6;stroke:#39B35C;stroke-miterlimit:10;}
	.st12{fill:#FFFFFF;stroke:#6CBF7A;stroke-miterlimit:10;}
	.st13{fill:#FFF154;stroke:#00AE53;stroke-linecap:square;stroke-linejoin:round;stroke-miterlimit:10;}
	.st14{fill:#FFF154;stroke:#00AE53;stroke-miterlimit:10;}
	.st15{fill:#FFF154;stroke:#00AE53;stroke-width:2;stroke-linecap:square;stroke-linejoin:round;stroke-miterlimit:10;}
	.st16{font-family:'AppleSDGothicNeo-Medium-KSCpc-EUC-H';}
	.st17{font-size:9.0233px;}
</style>
<g id="길_x5F_직물코스">
	<g class="st0">
		<polyline class="st1" points="828.7,1165.2 823.5,1163.7 838.2,1121.5 856.1,1126.1 861.9,1105.5 885.4,1104.5 893.2,1065.1 
			874.4,1060.1 885.9,1023.8 885,1022.7 884.9,996.2 874.6,993.6 882.7,997.5 883,1023.7 872.9,1060.7 765.5,1033 765.3,1043.4 
			764,1062.4 763.6,1089 789.2,1093.4 792.9,1094.8 789.9,1126.1 784.4,1130 768.8,1155.4 778.7,1158.6 770.7,1194.5 739.2,1181.1 
			713.5,1162.7 691.1,1189.1 651.3,1151 635.6,1219.8 731.8,1242.9 750.1,1247.7 757.7,1269.7 756.3,1293.5 770.1,1303.3 
			801.3,1278.6 814,1270.3 830.5,1212.8 874.1,1240.8 875,1253.5 861.6,1259.4 		"/>
	</g>
	<g>
		<polyline class="st2" points="828.7,1165.2 823.5,1163.7 838.2,1121.5 856.1,1126.1 861.9,1105.5 885.4,1104.5 893.2,1065.1 
			874.4,1060.1 885.9,1023.8 886,1022.5 884.9,996.2 874.6,993.6 882.7,997.5 883,1023.7 872.9,1060.7 765.5,1033 765.3,1043.4 
			764,1062.4 763.6,1089 789.2,1093.4 792.9,1094.8 789.9,1126.1 784.4,1130 768.8,1155.4 778.7,1158.6 770.7,1194.5 739.2,1181.1 
			713.5,1162.7 691.1,1189.1 651.3,1151 635.6,1219.8 731.8,1242.9 750.1,1247.7 757.7,1269.7 756.3,1293.5 770.1,1303.3 
			801.3,1278.6 814,1270.3 830.5,1212.8 874.1,1240.8 875,1253.5 861.6,1259.4 		"/>
	</g>
</g>
<polygon class="st3" points="867.4,986.5 856.3,989.8 834,986.5 832.2,974.4 834,966 845,964.1 867.4,966 869.9,972.4 "/>
<g>
	<g>
		<path class="st4" d="M930.2,971.2h-33.1c-4.3,0-7.8,3.5-7.8,7.8c0,1.5,0.5,2.9,1.2,4.1l-3.2,3.6l4.8-1.8c1.4,1.1,3.1,1.8,5,1.8
			h33.1c4.3,0,7.8-3.5,7.8-7.8S934.5,971.2,930.2,971.2z"/>
	</g>
	<text transform="matrix(1 0 0 1 898.5532 982.002)" class="st5 st6 st7">직물코스</text>
</g>
<text transform="matrix(1 0 0 1 838.7968 975.3746)" class="st8"><tspan x="0" y="0" class="st5 st9 st10">강화성당</tspan><tspan x="-2.1" y="8.4" class="st5 st9 st10">(노동사목)</tspan></text>
<polygon class="st3" points="752.9,1070.9 743.6,1073 724.9,1070.9 723.4,1063 724.9,1057.7 734.1,1056.5 752.9,1057.7 
	754.9,1061.8 "/>
<polyline class="st11" points="866,998.4 866,993.4 866,988.4 871.1,991.4 866.3,993.2 "/>
<polyline class="st11" points="757.1,1069.5 757.1,1064.5 757.1,1059.6 762.2,1062.6 757.4,1064.4 "/>
<polyline class="st11" points="769.7,1143.2 769.7,1138.2 769.7,1133.3 774.8,1136.3 770,1138 "/>
<polyline class="st11" points="775.7,1171.9 775.7,1167 775.7,1162 780.9,1165 776,1166.8 "/>
<polyline class="st11" points="869.2,1101.7 869.2,1096.8 869.2,1091.8 874.3,1094.8 869.5,1096.6 "/>
<polyline class="st11" points="882.6,1109.1 882.6,1104.2 882.6,1099.2 887.7,1102.2 882.8,1104 "/>
<polyline class="st11" points="737.7,1176.4 737.7,1171.5 737.7,1166.5 742.8,1169.5 738,1171.3 "/>
<polyline class="st11" points="686.8,1192.3 686.8,1187.3 686.8,1182.4 691.9,1185.4 687,1187.1 "/>
<path class="st12" d="M795.7,984.7"/>
<g>
	<text transform="matrix(1 0 0 1 727.2582 1067.0623)" class="st5 st9 st10">이화직물</text>
</g>
<polygon class="st3" points="926.9,1122.4 913.1,1124.5 885.3,1122.4 883.1,1114.6 885.3,1109.2 899,1108 926.9,1109.2 930,1113.3 
	"/>
<g>
	<text transform="matrix(1 0 0 1 887.0385 1118.6235)" class="st5 st9 st10">심도직물 굴뚝</text>
</g>
<polygon class="st3" points="763.8,1146.5 754.5,1148.6 735.8,1146.5 734.3,1138.7 735.8,1133.3 745,1132.1 763.8,1133.3 
	765.9,1137.4 "/>
<polygon class="st3" points="781.7,1184.1 771.8,1186.2 751.8,1184.1 750.2,1176.3 751.8,1170.9 761.7,1169.7 781.7,1170.9 
	784,1175 "/>
<polygon class="st3" points="733.9,1173.2 724.7,1175 706,1173.2 704.5,1166.4 706,1161.8 715.2,1160.7 733.9,1161.8 736,1165.3 "/>
<polygon class="st3" points="684.7,1193.6 675.4,1195.4 656.7,1193.6 655.2,1186.8 656.7,1182.1 665.9,1181.1 684.7,1182.1 
	686.8,1185.7 "/>
<g>
	<text transform="matrix(1 0 0 1 737.3872 1142.4802)" class="st5 st9 st10">금융상사</text>
</g>
<polyline class="st11" points="835.4,1211.3 835.4,1206.3 835.4,1201.3 840.6,1204.3 835.7,1206.1 "/>
<polygon class="st3" points="895,1212.4 878.3,1214.3 844.7,1212.4 842.1,1205.7 844.7,1201 861.3,1200 895,1201 898.8,1204.6 "/>
<g>
	<text transform="matrix(1 0 0 1 846.5356 1209.2327)" class="st5 st9 st10">낙원떡집&amp;새시장</text>
</g>
<g>
	<text transform="matrix(1 0 0 1 752.7214 1180.5895)" class="st5 st9 st10">241-1번지</text>
</g>
<g>
	<text transform="matrix(1 0 0 1 707.8718 1170.2523)" class="st5 st9 st10">그린화원</text>
</g>
<polyline class="st11" points="755.9,1252.9 755.9,1248 755.9,1243 761,1246 756.2,1247.8 "/>
<polygon class="st3" points="774.7,1266.2 765.4,1268 746.7,1266.2 745.3,1259.4 746.7,1254.7 756,1253.7 774.7,1254.7 
	776.8,1258.3 "/>
<g>
	<text transform="matrix(1 0 0 1 748.6503 1263.2172)" class="st5 st9 st10">동광직물</text>
</g>
<polyline class="st11" points="868.9,1242.4 868.9,1237.4 868.9,1232.4 874.1,1235.4 869.2,1237.2 "/>
<polygon class="st3" points="906.2,1243.5 896.9,1245.3 878.2,1243.5 876.8,1236.7 878.2,1232 887.5,1231 906.2,1232 908.3,1235.6 
	"/>
<g>
	<text transform="matrix(1 0 0 1 880.1125 1240.5101)" class="st5 st9 st10">경도직물</text>
</g>
<polygon class="st3" points="883.4,1262.9 878,1264.7 867.1,1262.9 866.3,1256.1 867.1,1251.5 872.5,1250.4 883.4,1251.5 
	884.6,1255 "/>
<g>
	<text transform="matrix(1 0 0 1 869.4814 1259.9485)" class="st5 st9 st10">한옥</text>
</g>
<polyline class="st11" points="836.8,1252.3 836.8,1247.4 836.8,1242.4 841.9,1245.4 837,1247.2 "/>
<polygon class="st3" points="862.2,1238.8 849.6,1240.6 824.2,1238.8 822.2,1232 824.2,1227.4 836.8,1226.3 862.2,1227.4 
	865,1230.9 "/>
<g>
	<text transform="matrix(1 0 0 1 823.8832 1235.8572)" class="st5 st9 st10">상호동진직물</text>
</g>
<polyline class="st11" points="779,1303 779,1298.1 779,1293.1 784.1,1296.1 779.3,1297.9 "/>
<polyline class="st11" points="779,1287.1 779,1282.1 779,1277.2 784.1,1280.2 779.3,1282 "/>
<polyline class="st11" points="770.1,1310.4 770.1,1305.4 770.1,1300.4 775.2,1303.4 770.4,1305.2 "/>
<polygon class="st3" points="789.8,1324.8 780.6,1326.7 761.9,1324.8 760.4,1318.1 761.9,1313.4 771.1,1312.4 789.8,1313.4 
	791.9,1316.9 "/>
<g>
	<text transform="matrix(1 0 0 1 763.7784 1321.8801)" class="st5 st9 st10">남화직물</text>
</g>
<polygon class="st3" points="810.1,1309.6 800.9,1311.4 782.2,1309.6 780.7,1302.8 782.2,1298.2 791.4,1297.1 810.1,1298.2 
	812.2,1301.7 "/>
<g>
	<text transform="matrix(1 0 0 1 784.0629 1306.6472)" class="st5 st9 st10">가망불망</text>
</g>
<g>
	<text transform="matrix(1 0 0 1 658.5263 1190.0067)" class="st5 st9 st10">조양방직</text>
</g>
<polyline class="st13" points="829.6,1164.9 829.6,1155.8 829.6,1146.8 839,1152.3 830.1,1155.5 "/>
<polyline class="st13" points="861.2,1259.9 861.2,1250.8 861.2,1241.8 870.6,1247.3 861.7,1250.5 "/>
<rect x="827.2" y="1163.5" class="st14" width="4.3" height="4.4"/>
<rect x="859.2" y="1257.2" class="st14" width="4.3" height="4.4"/>
<g>
	<path class="st15" d="M861.5,1172.3h-18c-3.9,0-7.1-3.2-7.1-7.1l0,0c0-3.9,3.2-7.1,7.1-7.1h18c3.9,0,7.1,3.2,7.1,7.1l0,0
		C868.7,1169.1,865.5,1172.3,861.5,1172.3z"/>
	<text transform="matrix(1 0 0 1 840.4164 1168.2998)" class="st16 st17">출발점</text>
</g>
<g>
	<path class="st15" d="M868.9,1280.3h-18c-3.9,0-7.1-3.2-7.1-7.1l0,0c0-3.9,3.2-7.1,7.1-7.1h18c3.9,0,7.1,3.2,7.1,7.1l0,0
		C876,1277.1,872.8,1280.3,868.9,1280.3z"/>
	<text transform="matrix(1 0 0 1 847.7498 1276.2997)" class="st16 st17">도착점</text>
</g>
</svg>
