<?xml version="1.0" encoding="iso-8859-1"?>
<!-- Generator: Adobe Illustrator 16.0.0, SVG Export Plug-In . SVG Version: 6.00 Build 0)  -->
<!DOCTYPE svg PUBLIC "-//W3C//DTD SVG 1.1//EN" "http://www.w3.org/Graphics/SVG/1.1/DTD/svg11.dtd">
<svg version="1.1" id="Capa_1" xmlns="http://www.w3.org/2000/svg" xmlns:xlink="http://www.w3.org/1999/xlink" x="0px" y="0px"
	 width="45.146px" height="45.146px" viewBox="0 0 45.146 45.146" 
	 xml:space="preserve">
<g>
	<path fill="white" d="M43.864,30.386c-3.489-0.409-6.464-2.573-7.963-5.582v-7.761c3.179-0.568,5.257-1.336,5.521-2.188h0.021v-1.76
		c0-0.682-0.479-1.258-1.157-1.349c-4.221-0.567-7.607-4.121-7.607-8.448V0.983C32.677,0.439,32.218,0,31.675,0
		c-0.539,0-0.996,0.437-0.996,0.976v2.163H14.466V0.976C14.466,0.437,14.009,0,13.47,0c-0.542,0-1.002,0.439-1.002,0.983v2.315
		c0,4.327-3.387,7.88-7.608,8.448c-0.676,0.091-1.157,0.667-1.157,1.349v1.76h0.026c0.261,0.852,2.336,1.62,5.515,2.188v7.761
		c-1.499,3.009-4.474,5.173-7.964,5.582c-0.686,0.081-1.21,0.661-1.21,1.351v2.327h0.078c0.374,1.228,3.874,2.279,9.096,2.962v6.75
		c0,0.752,0.613,1.369,1.365,1.369h2.171c0.753,0,1.369-0.617,1.369-1.369v-6.264c1.907,0.136,3.905,0.229,5.994,0.268v5.996
		c0,0.752,0.629,1.37,1.381,1.37h2.101c0.752,0,1.377-0.618,1.377-1.37v-5.996c2.09-0.039,4.088-0.132,5.995-0.268v6.264
		c0,0.752,0.62,1.369,1.373,1.369h2.171c0.754,0,1.361-0.617,1.361-1.369v-6.75c5.223-0.683,8.727-1.736,9.102-2.962h0.072v-2.327
		C45.075,31.047,44.548,30.467,43.864,30.386z M20.143,24.664h-5.994v-6.99c1.861,0.166,3.859,0.28,5.994,0.333V24.664z
		 M30.996,24.664h-5.994v-6.657c2.135-0.052,4.133-0.167,5.994-0.333V24.664z"/>
</g>
</svg>
