<?xml version="1.0" encoding="iso-8859-1"?>
<!-- Generator: Adobe Illustrator 19.0.0, SVG Export Plug-In . SVG Version: 6.00 Build 0)  -->
<svg version="1.1" id="Layer_1" xmlns="http://www.w3.org/2000/svg" xmlns:xlink="http://www.w3.org/1999/xlink" x="0px" y="0px"
	 viewBox="0 0 512 512" xml:space="preserve">
<g>
	<g>
		<path fill="white" d="M468.2,128.4c-3.3-36.9-29.4-50.3-53.9-50.3c-33,0-50.7,19.8-57,28.8c-20.4,2.6-36.3,21.4-36.3,44
			c0,24.4,18.5,44.3,41.2,44.3h100.9c17.3,0,31.5-15.1,31.5-33.6C494.6,144.9,483.2,131,468.2,128.4z"/>
	</g>
</g>
<g>
	<g>
		<path fill="white" d="M86.8,481.6c-4.8,0-8.7,3.9-8.7,8.7v8.7c0,4.8,3.9,8.7,8.7,8.7s8.7-3.9,8.7-8.7v-8.7C95.5,485.5,91.6,481.6,86.8,481.6z"
			/>
	</g>
</g>
<g>
	<g>
		<path fill="white" d="M52.1,481.6c-4.8,0-8.7,3.9-8.7,8.7v8.7c0,4.8,3.9,8.7,8.7,8.7c4.8,0,8.7-3.9,8.7-8.7v-8.7
			C60.7,485.5,56.9,481.6,52.1,481.6z"/>
	</g>
</g>
<g>
	<g>
		<path fill="white" d="M17.4,481.6c-4.8,0-8.7,3.9-8.7,8.7v8.7c0,4.8,3.9,8.7,8.7,8.7c4.8,0,8.7-3.9,8.7-8.7v-8.7
			C26,485.5,22.2,481.6,17.4,481.6z"/>
	</g>
</g>
<g>
	<g>
		<path fill="white" d="M225.6,481.6c-4.8,0-8.7,3.9-8.7,8.7v8.7c0,4.8,3.9,8.7,8.7,8.7c4.8,0,8.7-3.9,8.7-8.7v-8.7
			C234.3,485.5,230.4,481.6,225.6,481.6z"/>
	</g>
</g>
<g>
	<g>
		<path fill="white" d="M190.9,481.6c-4.8,0-8.7,3.9-8.7,8.7v8.7c0,4.8,3.9,8.7,8.7,8.7c4.8,0,8.7-3.9,8.7-8.7v-8.7
			C199.6,485.5,195.7,481.6,190.9,481.6z"/>
	</g>
</g>
<g>
	<g>
		<path fill="white" d="M156.2,481.6c-4.8,0-8.7,3.9-8.7,8.7v8.7c0,4.8,3.9,8.7,8.7,8.7s8.7-3.9,8.7-8.7v-8.7C164.9,485.5,161,481.6,156.2,481.6z
			"/>
	</g>
</g>
<g>
	<g>
		<path fill="white" d="M503.3,481.6c-4.8,0-8.7,3.9-8.7,8.7v8.7c0,4.8,3.9,8.7,8.7,8.7s8.7-3.9,8.7-8.7v-8.7C512,485.5,508.1,481.6,503.3,481.6z
			"/>
	</g>
</g>
<g>
	<g>
		<path fill="white" d="M468.6,481.6c-4.8,0-8.7,3.9-8.7,8.7v8.7c0,4.8,3.9,8.7,8.7,8.7c4.8,0,8.7-3.9,8.7-8.7v-8.7
			C477.3,485.5,473.4,481.6,468.6,481.6z"/>
	</g>
</g>
<g>
	<g>
		<path fill="white" d="M260.3,481.6c-4.8,0-8.7,3.9-8.7,8.7v8.7c0,4.8,3.9,8.7,8.7,8.7s8.7-3.9,8.7-8.7v-8.7C269,485.5,265.1,481.6,260.3,481.6z
			"/>
	</g>
</g>
<g>
	<g>
		<path fill="white" d="M347.1,481.6c-4.8,0-8.7,3.9-8.7,8.7v8.7c0,4.8,3.9,8.7,8.7,8.7c4.8,0,8.7-3.9,8.7-8.7v-8.7
			C355.8,485.5,351.9,481.6,347.1,481.6z"/>
	</g>
</g>
<g>
	<g>
		<path fill="white" d="M381.8,481.6c-4.8,0-8.7,3.9-8.7,8.7v8.7c0,4.8,3.9,8.7,8.7,8.7c4.8,0,8.7-3.9,8.7-8.7v-8.7
			C390.5,485.5,386.6,481.6,381.8,481.6z"/>
	</g>
</g>
<g>
	<g>
		<path fill="white" d="M433.9,403.7v-17.5h17.4c4.8,0,8.7-3.9,8.7-8.7c0-4.8-3.9-8.7-8.7-8.7h-17.4v-17.4h17.4c4.8,0,8.7-3.9,8.7-8.7
			c0-4.8-3.9-8.7-8.7-8.7h-17.4v-8.7c0-4.8-3.9-8.7-8.7-8.7c-4.8,0-8.7,3.9-8.7,8.7v8.7H312.4v-8.7c0-4.8-3.9-8.7-8.7-8.7
			c-4.8,0-8.7,3.9-8.7,8.7v8.7h-17.4c-4.8,0-8.7,3.9-8.7,8.7c0,4.8,3.9,8.7,8.7,8.7H295v17.4h-17.4c-4.8,0-8.7,3.9-8.7,8.7
			c0,4.8,3.9,8.7,8.7,8.7H295v17.5c-19.2,0.7-34.7,16.5-34.7,35.9v16c0,4.8,3.9,8.7,8.7,8.7h26V499c0,4.8,3.9,8.7,8.7,8.7
			c4.8,0,8.7-3.9,8.7-8.7v-34.7h104.1V499c0,4.8,3.9,8.7,8.7,8.7c4.8,0,8.7-3.9,8.7-8.7v-34.7h26c4.8,0,8.7-3.9,8.7-8.7v-16
			C468.6,420.2,453.1,404.4,433.9,403.7z M416.5,403.5H312.4v-17.4h104.1V403.5z M416.5,368.8H312.4v-17.4h104.1V368.8z"/>
	</g>
</g>
<g>
	<g>
		<path fill="white" d="M243,4.3c-22.6,0-42.4,12.5-52.8,30.9c-9.4-13.4-25-22.2-42.6-22.2c-4.8,0-8.7,3.9-8.7,8.7s3.9,8.7,8.7,8.7
			c19.1,0,34.7,15.6,34.7,34.7c0,4.8,3.9,8.7,8.7,8.7s8.7-3.9,8.7-8.7c0-23.9,19.5-43.4,43.4-43.4c4.8,0,8.7-3.9,8.7-8.7
			S247.8,4.3,243,4.3z"/>
	</g>
</g>
<g>
	<g>
		<path fill="white" d="M121.5,186.6C54.5,186.6,0,241.1,0,308.1c0,64.1,49.9,116.6,112.8,121V499c0,4.8,3.9,8.7,8.7,8.7s8.7-3.9,8.7-8.7v-69.9
			c62.9-4.5,112.8-57,112.8-121C243,241.1,188.5,186.6,121.5,186.6z M153.7,357.6l-23.5,23.5v39.8c0-4.8-3.9-8.7-8.7-8.7
			s-8.7,3.9-8.7,8.7v-39.8l-23.5-23.5c-3.4-3.4-3.4-8.9,0-12.3c3.4-3.4,8.9-3.4,12.3,0l19.9,19.9l19.9-19.9c3.4-3.4,8.9-3.4,12.3,0
			C157.1,348.7,157.1,354.2,153.7,357.6z"/>
	</g>
</g>
</svg>
